<?xml version="1.0" encoding="UTF-8"?>
<svg width="34px" height="34px" viewBox="0 0 34 34" version="1.1" xmlns="http://www.w3.org/2000/svg" xmlns:xlink="http://www.w3.org/1999/xlink">
    <!-- Generator: Sketch 62 (91390) - https://sketch.com -->
    <title>x-circle (1)</title>
    <desc>Created with Sketch.</desc>
    <g id="Page-1" stroke="none" stroke-width="1" fill="none" fill-rule="evenodd">
        <g id="REVITA-5_dashboard_v03" transform="translate(-1607.000000, -710.000000)" fill="#FFFFFF" fill-rule="nonzero">
            <g id="Group-22-Copy-3" transform="translate(1538.000000, 330.000000)">
                <g id="Group-40" transform="translate(69.000000, 380.000000)">
                    <g id="x-circle-(1)">
                        <path d="M17,0.5 C7.88730163,0.5 0.5,7.88730163 0.5,17 C0.5,26.1126984 7.88730163,33.5 17,33.5 C26.1126984,33.5 33.5,26.1126984 33.5,17 C33.5,7.88730163 26.1126984,0.5 17,0.5 Z M17,3.5 C24.4558441,3.5 30.5,9.54415588 30.5,17 C30.5,24.4558441 24.4558441,30.5 17,30.5 C9.54415588,30.5 3.5,24.4558441 3.5,17 C3.5,9.54415588 9.54415588,3.5 17,3.5 Z" id="Oval"></path>
                        <path d="M20.4393398,11.4393398 C21.0251263,10.8535534 21.9748737,10.8535534 22.5606602,11.4393398 C23.1013861,11.9800658 23.1429804,12.8309124 22.6854431,13.4193492 L22.5606602,13.5606602 L13.5606602,22.5606602 C12.9748737,23.1464466 12.0251263,23.1464466 11.4393398,22.5606602 C10.8986139,22.0199342 10.8570196,21.1690876 11.3145569,20.5806508 L11.4393398,20.4393398 L20.4393398,11.4393398 Z" id="Path"></path>
                        <path d="M11.4393398,11.4393398 C11.9800658,10.8986139 12.8309124,10.8570196 13.4193492,11.3145569 L13.5606602,11.4393398 L22.5606602,20.4393398 C23.1464466,21.0251263 23.1464466,21.9748737 22.5606602,22.5606602 C22.0199342,23.1013861 21.1690876,23.1429804 20.5806508,22.6854431 L20.4393398,22.5606602 L11.4393398,13.5606602 C10.8535534,12.9748737 10.8535534,12.0251263 11.4393398,11.4393398 Z" id="Path"></path>
                    </g>
                </g>
            </g>
        </g>
    </g>
</svg>