<?xml version="1.0" encoding="UTF-8"?>
<svg width="31px" height="34px" viewBox="0 0 31 34" version="1.1" xmlns="http://www.w3.org/2000/svg" xmlns:xlink="http://www.w3.org/1999/xlink">
    <!-- Generator: Sketch 62 (91390) - https://sketch.com -->
    <title>zap (3)</title>
    <desc>Created with Sketch.</desc>
    <g id="Page-1" stroke="none" stroke-width="1" fill="none" fill-rule="evenodd">
        <g id="REVITA-5_dashboard_v03" transform="translate(-584.000000, -710.000000)" fill="#FFFFFF" fill-rule="nonzero">
            <g id="Group-22" transform="translate(556.000000, 330.000000)">
                <g id="Group-36" transform="translate(28.000000, 380.000000)">
                    <g id="zap-(3)">
                        <path d="M0.847668081,19.0397234 L0.745911571,19.1759007 C0.0978592675,20.1484933 0.78605064,21.5 2,21.5 L13.799,21.5 L12.5115832,31.8139479 C12.3258018,33.3001991 14.1934525,34.1109319 15.1523319,32.9602766 L30.1523319,14.9602766 L30.2540884,14.8240993 C30.9021407,13.8515067 30.2139494,12.5 29,12.5 L17.1995,12.5 L18.4884168,2.1860521 C18.6741982,0.699800933 16.8065475,-0.110931876 15.8476681,1.0397234 L0.847668081,19.0397234 Z M14.876,6.8915 L14.0115832,13.8139479 L13.9998216,13.9914071 C13.9936579,14.8111494 14.6579028,15.5 15.5,15.5 L25.796,15.5 L16.1225,27.107 L16.9884168,20.1860521 L17.0001784,20.0085929 C17.0063421,19.1888506 16.3420972,18.5 15.5,18.5 L5.2025,18.5 L14.876,6.8915 Z" id="Path"></path>
                    </g>
                </g>
            </g>
        </g>
    </g>
</svg>