<?xml version="1.0" encoding="UTF-8"?>
<svg width="34px" height="33px" viewBox="0 0 34 33" version="1.1" xmlns="http://www.w3.org/2000/svg" xmlns:xlink="http://www.w3.org/1999/xlink">
    <!-- Generator: Sketch 62 (91390) - https://sketch.com -->
    <title>check-circle (3)</title>
    <desc>Created with Sketch.</desc>
    <g id="Page-1" stroke="none" stroke-width="1" fill="none" fill-rule="evenodd">
        <g id="REVITA-5_dashboard_v03" transform="translate(-938.000000, -710.000000)" fill="#FFFFFF" fill-rule="nonzero">
            <g id="Group-22-Copy" transform="translate(883.000000, 330.000000)">
                <g id="Group-37" transform="translate(55.000000, 379.000000)">
                    <g id="check-circle-(3)">
                        <path d="M4.45715218,6.77102669 C9.20487991,1.21619142 17.0407756,-0.554225627 23.7154998,2.41985765 C24.4722085,2.75702736 24.8123121,3.64379103 24.4751423,4.40049975 C24.1379726,5.15720848 23.251209,5.49731205 22.4945002,5.16014235 C17.0333623,2.72680148 10.6221749,4.17532452 6.73767041,8.72018974 C2.8531659,13.265055 2.42069769,19.8236001 5.67478961,24.8391819 C8.92888153,29.8547637 15.0943549,32.1325874 20.827726,30.4374086 C26.4307932,28.7807566 30.3167675,23.7153138 30.4936989,17.9064428 L30.5,17.5 L30.5,16.12 C30.5,15.2915729 31.1715729,14.62 32,14.62 C32.7692538,14.62 33.4032607,15.1990603 33.4899084,15.9450683 L33.5,16.12 L33.5,17.5008577 C33.4958216,24.8081893 28.6857848,31.2424091 21.6783312,33.3142942 C14.6708777,35.3861794 7.13529911,32.6021727 3.15807565,26.4720171 C-0.819147815,20.3418616 -0.29057556,12.325862 4.45715218,6.77102669 Z" id="Path"></path>
                        <path d="M30.9388099,4.43987003 C31.5243035,3.85379091 32.4740509,3.85331628 33.06013,4.4388099 C33.6011261,4.97926554 33.6431456,5.83009123 33.1859024,6.41875662 L33.0611901,6.56012997 L18.0611901,21.57513 C17.5205435,22.1163173 16.6693546,22.1581494 16.0807019,21.700483 L15.9393398,21.5756602 L11.4393398,17.0756602 C10.8535534,16.4898737 10.8535534,15.5401263 11.4393398,14.9543398 C11.9800658,14.4136139 12.8309124,14.3720196 13.4193492,14.8295569 L13.5606602,14.9543398 L17,18.3925 L30.9388099,4.43987003 Z" id="Path"></path>
                    </g>
                </g>
            </g>
        </g>
    </g>
</svg>