<?xml version="1.0" encoding="UTF-8"?>
<svg width="34px" height="34px" viewBox="0 0 34 34" version="1.1" xmlns="http://www.w3.org/2000/svg" xmlns:xlink="http://www.w3.org/1999/xlink">
    <!-- Generator: Sketch 62 (91390) - https://sketch.com -->
    <title>clock (4)</title>
    <desc>Created with Sketch.</desc>
    <g id="Page-1" stroke="none" stroke-width="1" fill="none" fill-rule="evenodd">
        <g id="REVITA-5_dashboard_v03" transform="translate(-1304.000000, -710.000000)" fill="#FFFFFF" fill-rule="nonzero">
            <g id="Group-22-Copy-2" transform="translate(1211.000000, 330.000000)">
                <g id="Group-39" transform="translate(93.000000, 380.000000)">
                    <g id="clock-(4)">
                        <path d="M17,0.5 C7.88730163,0.5 0.5,7.88730163 0.5,17 C0.5,26.1126984 7.88730163,33.5 17,33.5 C26.1126984,33.5 33.5,26.1126984 33.5,17 C33.5,7.88730163 26.1126984,0.5 17,0.5 Z M17,3.5 C24.4558441,3.5 30.5,9.54415588 30.5,17 C30.5,24.4558441 24.4558441,30.5 17,30.5 C9.54415588,30.5 3.5,24.4558441 3.5,17 C3.5,9.54415588 9.54415588,3.5 17,3.5 Z" id="Oval"></path>
                        <path d="M17,6.5 C17.7692538,6.5 18.4032607,7.07906029 18.4899084,7.82506831 L18.5,8 L18.5,16.073 L23.6708204,18.6583592 C24.3588619,19.00238 24.6669713,19.8038438 24.4108464,20.5098436 L24.3416408,20.6708204 C23.99762,21.3588619 23.1961562,21.6669713 22.4901564,21.4108464 L22.3291796,21.3416408 L16.3291796,18.3416408 C15.8774676,18.1157848 15.5736449,17.6803037 15.5117054,17.1872829 L15.5,17 L15.5,8 C15.5,7.17157288 16.1715729,6.5 17,6.5 Z" id="Path"></path>
                    </g>
                </g>
            </g>
        </g>
    </g>
</svg>