<?xml version="1.0" encoding="UTF-8"?>
<svg width="35px" height="31px" viewBox="0 0 35 31" version="1.1" xmlns="http://www.w3.org/2000/svg" xmlns:xlink="http://www.w3.org/1999/xlink">
    <!-- Generator: Sketch 62 (91390) - https://sketch.com -->
    <title>alert-triangle (1)</title>
    <desc>Created with Sketch.</desc>
    <g id="Page-1" stroke="none" stroke-width="1" fill="none" fill-rule="evenodd">
        <g id="REVITA-5_dashboard_v03" transform="translate(-2538.000000, -713.000000)" fill="#FFFFFF" fill-rule="nonzero">
            <g id="Group-22-Copy-5" transform="translate(2520.000000, 330.000000)">
                <g id="Group-42" transform="translate(18.000000, 383.000000)">
                    <g id="alert-triangle-(1)">
                        <path d="M17.5,0.845883993 C15.9270561,0.845883993 14.4682727,1.66719097 13.6525,3.012058 L0.943198867,24.2291934 C0.131457867,25.6345586 0.126684056,27.3394899 0.918473875,28.7285949 C1.71026369,30.1176998 3.17969124,30.9823364 4.7785142,31 L30.205,31 C31.8203088,30.9823364 33.2897363,30.1176998 34.0815261,28.7285949 C34.8733159,27.3394899 34.8685421,25.6345586 34.0689858,24.2499094 L21.3518011,3.01919338 C20.5317273,1.66719097 19.0729439,0.845883993 17.5,0.845883993 Z M17.5,3.84588399 C18.0243146,3.84588399 18.5105758,4.11965299 18.7825,4.567942 L31.4831989,25.7708066 C31.737533,26.2116403 31.7391243,26.7799508 31.4751943,27.2429858 C31.2112644,27.7060207 30.7214552,27.9942329 30.1885142,28.0000906 L4.795,28.0000906 C4.27854481,27.9942329 3.78873563,27.7060207 3.52480569,27.2429858 C3.26087575,26.7799508 3.26246702,26.2116403 3.5289858,25.7500906 L16.2218011,4.56080662 C16.4894242,4.11965299 16.9756854,3.84588399 17.5,3.84588399 Z" id="Path"></path>
                        <path d="M17.5,10 C18.2692538,10 18.9032607,10.5790603 18.9899084,11.3250683 L19,11.5 L19,17.5 C19,18.3284271 18.3284271,19 17.5,19 C16.7307462,19 16.0967393,18.4209397 16.0100916,17.6749317 L16,17.5 L16,11.5 C16,10.6715729 16.6715729,10 17.5,10 Z" id="Path"></path>
                        <path d="M17.515,22 C18.3434271,22 19.015,22.6715729 19.015,23.5 C19.015,24.2692538 18.4359397,24.9032607 17.6899317,24.9899084 L17.5,25 C16.6715729,25 16,24.3284271 16,23.5 C16,22.7307462 16.5790603,22.0967393 17.3250683,22.0100916 L17.515,22 Z" id="Path"></path>
                    </g>
                </g>
            </g>
        </g>
    </g>
</svg>