<?xml version="1.0" encoding="UTF-8"?>
<svg width="30px" height="34px" viewBox="0 0 30 34" version="1.1" xmlns="http://www.w3.org/2000/svg" xmlns:xlink="http://www.w3.org/1999/xlink">
    <!-- Generator: Sketch 62 (91390) - https://sketch.com -->
    <title>power (1)</title>
    <desc>Created with Sketch.</desc>
    <g id="Page-1" stroke="none" stroke-width="1" fill="none" fill-rule="evenodd">
        <g id="REVITA-5_dashboard_v03" transform="translate(-1941.000000, -710.000000)" fill="#FFFFFF" fill-rule="nonzero">
            <g id="Group-22-Copy-4" transform="translate(1865.000000, 330.000000)">
                <g id="Group-41" transform="translate(75.000000, 380.000000)">
                    <g id="power-(1)">
                        <path d="M5.38416667,7.89951302 C5.96985745,7.31363095 6.91960491,7.31347588 7.50548698,7.89916667 C8.09136905,8.48485745 8.09152412,9.43460491 7.50583333,10.020487 C2.82066766,14.7071828 2.82149461,22.3044502 7.50768044,26.990126 C12.1938663,31.6758018 19.7911337,31.6758018 24.4773196,26.990126 C29.1635054,22.3044502 29.1643323,14.7071828 24.4791667,10.020487 C23.8934759,9.43460491 23.8936309,8.48485745 24.479513,7.89916667 C25.0653951,7.31347588 26.0151425,7.31363095 26.6008333,7.89951302 C32.4572904,13.7578828 32.4562567,23.2544671 26.5985244,29.1115618 C20.7407922,34.9686565 11.2442078,34.9686565 5.38647555,29.1115618 C-0.471256743,23.2544671 -0.472290425,13.7578828 5.38416667,7.89951302 Z" id="Path"></path>
                        <path d="M16,0.5 C16.7692538,0.5 17.4032607,1.07906029 17.4899084,1.82506831 L17.5,2 L17.5,17 C17.5,17.8284271 16.8284271,18.5 16,18.5 C15.2307462,18.5 14.5967393,17.9209397 14.5100916,17.1749317 L14.5,17 L14.5,2 C14.5,1.17157288 15.1715729,0.5 16,0.5 Z" id="Path"></path>
                    </g>
                </g>
            </g>
        </g>
    </g>
</svg>