<?xml version="1.0" encoding="UTF-8"?>
<svg width="104px" height="104px" viewBox="0 0 104 104" version="1.1" xmlns="http://www.w3.org/2000/svg" xmlns:xlink="http://www.w3.org/1999/xlink">
    <!-- Generator: Sketch 62 (91390) - https://sketch.com -->
    <title>check-circle (3)</title>
    <desc>Created with Sketch.</desc>
    <g id="Page-1" stroke="none" stroke-width="1" fill="none" fill-rule="evenodd" opacity="0.200000003">
        <g id="REVITA-5_dashboard_v03" transform="translate(-1778.000000, -1356.000000)" fill="#FFFFFF" fill-rule="nonzero">
            <g id="Group-49" transform="translate(1490.000000, 974.000000)">
                <g id="Mask-2">
                    <g id="Group-48" transform="translate(26.000000, 361.000000)">
                        <g id="check-circle-(3)" transform="translate(262.000000, 20.365854)">
                            <path d="M12.4712841,18.8501393 C27.4337777,1.34514823 52.1286518,-4.23397932 73.1640865,5.13827002 C75.5488588,6.20079525 76.6206973,8.99525979 75.5581049,11.3798813 C74.4955124,13.7645027 71.7008712,14.8362735 69.3160989,13.7737482 C52.1052887,6.10554423 31.9003917,10.670285 19.6583515,24.9925504 C7.41631135,39.3148158 6.0533851,59.9828047 16.3086761,75.7884425 C26.563967,91.5940804 45.9944948,98.7722022 64.0632495,93.4301734 C81.7213507,88.2095545 93.9680228,72.2467893 94.5256234,53.9412534 L94.5454813,52.6604275 L94.5454813,48.3116239 C94.5454813,45.7009958 96.6619474,43.5846635 99.2727407,43.5846635 C101.697049,43.5846635 103.695126,45.4094602 103.968196,47.7603605 L104,48.3116239 L104,52.6631303 C103.986832,75.6907754 88.8279708,95.9669768 66.7439372,102.496123 C44.6599037,109.025269 20.9114808,100.252009 8.37723633,80.9340075 C-4.1570082,61.6160056 -2.49120944,36.3551303 12.4712841,18.8501393 Z" id="Path"></path>
                            <path d="M95.8041917,10.0014914 C97.6777712,8.17965238 100.716963,8.17817696 102.592416,9.99819598 C104.323603,11.6782135 104.458066,14.3230228 102.994888,16.1529013 L102.595808,16.5923633 L54.5958083,63.2668013 C52.8657391,64.9490931 50.1419348,65.0791291 48.258246,63.6564639 L47.8058874,63.2684494 L33.4058875,49.2801064 C31.5313708,47.4591771 31.5313708,44.5068675 33.4058875,42.6859382 C35.1362105,41.0050804 37.8589195,40.8757837 39.7419173,42.2980479 L40.1941125,42.6859382 L51.2,53.3735302 L95.8041917,10.0014914 Z" id="Path"></path>
                        </g>
                    </g>
                </g>
            </g>
        </g>
    </g>
</svg>