<?xml version="1.0" encoding="UTF-8"?>
<svg width="44px" height="37px" viewBox="0 0 44 37" version="1.1" xmlns="http://www.w3.org/2000/svg" xmlns:xlink="http://www.w3.org/1999/xlink">
    <!-- Generator: Sketch 62 (91390) - https://sketch.com -->
    <title>Group 28</title>
    <desc>Created with Sketch.</desc>
    <g id="Page-1" stroke="none" stroke-width="1" fill="none" fill-rule="evenodd" stroke-linecap="round" stroke-linejoin="round">
        <g id="REVITA-5_charger_v02" transform="translate(-2367.000000, -1848.000000)" stroke-width="3">
            <g id="Group-28" transform="translate(2369.000000, 1850.000000)">
                <g id="Group-19" transform="translate(0.000000, 12.000000)" stroke="#F7B500">
                    <path d="M17.7187172,10.4999672 C17.7187172,14.4866859 14.4866859,17.7187172 10.4999672,17.7187172 C6.51324844,17.7187172 3.28121719,14.4866859 3.28121719,10.4999672 C3.28121719,6.51324844 6.51324844,3.28121719 10.4999672,3.28121719 C14.4866859,3.28121719 17.7187172,6.51324844 17.7187172,10.4999672 Z" id="Stroke-1"></path>
                    <line x1="10.4999672" y1="3.28121719" x2="10.4999672" y2="-3.28125e-05" id="Stroke-3"></line>
                    <line x1="10.4999672" y1="20.9999672" x2="10.4999672" y2="17.7187172" id="Stroke-5"></line>
                    <line x1="17.7187172" y1="10.4999672" x2="20.9999672" y2="10.4999672" id="Stroke-7"></line>
                    <line x1="-3.28125002e-05" y1="10.4999672" x2="3.28121719" y2="10.4999672" id="Stroke-9"></line>
                    <line x1="15.6043453" y1="15.6044766" x2="17.9245172" y2="17.9246484" id="Stroke-11"></line>
                    <line x1="3.07535156" y1="3.07531875" x2="5.39552344" y2="5.39549063" id="Stroke-13"></line>
                    <line x1="15.6043453" y1="5.39558906" x2="17.9245172" y2="3.07541719" id="Stroke-15"></line>
                    <line x1="3.07535156" y1="17.9245828" x2="5.39552344" y2="15.6044109" id="Stroke-17"></line>
                </g>
                <g id="Group-19-Copy" transform="translate(19.000000, 0.000000)" stroke="#FA6400">
                    <path d="M17.7187172,10.4999672 C17.7187172,14.4866859 14.4866859,17.7187172 10.4999672,17.7187172 C6.51324844,17.7187172 3.28121719,14.4866859 3.28121719,10.4999672 C3.28121719,6.51324844 6.51324844,3.28121719 10.4999672,3.28121719 C14.4866859,3.28121719 17.7187172,6.51324844 17.7187172,10.4999672 Z" id="Stroke-1"></path>
                    <line x1="10.4999672" y1="3.28121719" x2="10.4999672" y2="-3.28125e-05" id="Stroke-3"></line>
                    <line x1="10.4999672" y1="20.9999672" x2="10.4999672" y2="17.7187172" id="Stroke-5"></line>
                    <line x1="17.7187172" y1="10.4999672" x2="20.9999672" y2="10.4999672" id="Stroke-7"></line>
                    <line x1="-3.28125002e-05" y1="10.4999672" x2="3.28121719" y2="10.4999672" id="Stroke-9"></line>
                    <line x1="15.6043453" y1="15.6044766" x2="17.9245172" y2="17.9246484" id="Stroke-11"></line>
                    <line x1="3.07535156" y1="3.07531875" x2="5.39552344" y2="5.39549063" id="Stroke-13"></line>
                    <line x1="15.6043453" y1="5.39558906" x2="17.9245172" y2="3.07541719" id="Stroke-15"></line>
                    <line x1="3.07535156" y1="17.9245828" x2="5.39552344" y2="15.6044109" id="Stroke-17"></line>
                </g>
            </g>
        </g>
    </g>
</svg>