<?xml version="1.0" encoding="UTF-8"?>
<svg width="214px" height="294px" viewBox="0 0 214 294" version="1.1" xmlns="http://www.w3.org/2000/svg" xmlns:xlink="http://www.w3.org/1999/xlink">
    <!-- Generator: Sketch 62 (91390) - https://sketch.com -->
    <title>electric-charge copy 3</title>
    <desc>Created with Sketch.</desc>
    <g id="Page-1" stroke="none" stroke-width="1" fill="none" fill-rule="evenodd" opacity="0.200000003">
        <g id="REVITA-5_dashboard_v03" transform="translate(-1297.000000, -366.000000)" fill="#FFFFFF" fill-rule="nonzero">
            <g id="Group-22-Copy-2" transform="translate(1211.000000, 330.000000)">
                <g id="Rectangle">
                    <g id="electric-charge-copy-3" transform="translate(220.000000, 183.000000) scale(-1, 1) translate(-220.000000, -183.000000) translate(86.000000, 36.000000)">
                        <path d="M49.6363636,86 L136.363636,86 C141.685653,86 146,81.7019336 146,76.4 L146,47.6 C146,42.2980664 141.685653,38 136.363636,38 L49.6363636,38 C44.314347,38 40,42.2980664 40,47.6 L40,76.4 C40,81.7019336 44.314347,86 49.6363636,86 Z M49.6363636,47.6 L136.363636,47.6 L136.363636,76.4 L49.6363636,76.4 L49.6363636,47.6 Z" id="Shape"></path>
                        <path d="M266.561161,34.9517 L252.653708,21.07 C250.734677,19.1571285 247.623927,19.1571285 245.704895,21.07 L221.968853,44.737 C221.04356,45.6593132 220.525324,46.9114531 220.528965,48.216 L220.528965,90.65 C220.547834,91.1730277 220.652416,91.6894516 220.838565,92.1788 L220.779594,92.1788 L225.693888,106.8788 C226.355752,108.888406 228.236193,110.247711 230.357554,110.25 L230.357554,267.05 C230.357554,275.168586 223.75694,281.75 215.61467,281.75 C207.472401,281.75 206.400368,275.168586 206.400368,267.05 L206.400368,198.45 C206.400368,190.331414 199.799754,183.75 191.657485,183.75 L196.571779,186.2 C196.571779,178.081414 189.971165,171.5 181.828896,171.5 L176.914601,171.5 L176.914601,34.3 C176.892936,15.3655883 161.504188,0.0216023163 142.51454,0 L44.2286503,0 C25.2390023,0.0216023163 9.85025429,15.3655883 9.82858896,34.3 L9.82858896,254.8 L4.91429448,254.8 C2.20020458,254.8 0,256.993805 0,259.7 L0,289.1 C0,291.806195 2.20020458,294 4.91429448,294 L181.828896,294 C184.542986,294 186.74319,291.806195 186.74319,289.1 L186.74319,259.7 C186.74319,256.993805 184.542986,254.8 181.828896,254.8 L176.914601,254.8 L176.914601,210.7 L181.828896,210.7 C189.971165,210.7 196.571779,204.118586 196.571779,196 L191.657485,193.55 C194.371575,193.55 196.571779,195.743805 196.571779,198.45 L196.571779,267.05 C196.571779,280.580976 202.044221,291.55 215.61467,291.55 C229.18512,291.55 240.186143,280.580976 240.186143,267.05 L240.186143,110.25 C242.302274,110.250508 244.181111,108.900259 244.849808,106.8984 L249.764103,92.1984 L249.705131,92.1984 C249.893393,91.7028592 249.99801,91.1796408 250.014732,90.65 L250.014732,58.3786 L266.561161,41.8803 C268.479613,39.9668507 268.479613,36.8651493 266.561161,34.9517 Z M44.2286503,9.8 L142.51454,9.8 C156.078254,9.81619997 167.069765,20.7757396 167.086012,34.3 L167.086012,117.6 L19.6571779,117.6 L19.6571779,34.3 C19.6734251,20.7757396 30.6649364,9.81619997 44.2286503,9.8 Z M176.914601,284.2 L9.82858896,284.2 L9.82858896,264.6 L176.914601,264.6 L176.914601,284.2 Z M19.6571779,254.8 L19.6571779,127.4 L167.086012,127.4 L167.086012,254.8 L19.6571779,254.8 Z M186.74319,196 C186.74319,198.706195 184.542986,200.9 181.828896,200.9 L176.914601,200.9 L176.914601,181.3 L181.828896,181.3 C184.542986,181.3 186.74319,183.493805 186.74319,186.2 L186.74319,196 Z M230.357554,50.2446 L238.564425,42.0616 L245.523066,49 L241.626031,52.8857 C240.704358,53.8044144 240.186421,55.0505454 240.186143,56.35 L240.186143,85.75 L230.357554,85.75 L230.357554,50.2446 Z M233.90076,100.45 L232.259386,95.55 L238.284311,95.55 L236.642936,100.45 L233.90076,100.45 Z M252.471879,42.0714 L245.513238,35.133 L249.179302,31.4776 L256.137943,38.416 L252.471879,42.0714 Z" id="Shape"></path>
                        <g id="clock-(3)" transform="translate(93.000000, 189.000000) scale(-1, 1) translate(-93.000000, -189.000000) translate(58.000000, 154.000000)">
                            <path d="M35,0 C15.6700338,0 0,15.6700338 0,35 C0,54.3299662 15.6700338,70 35,70 C54.3299662,70 70,54.3299662 70,35 C70,15.6700338 54.3299662,0 35,0 Z M35,9.13043478 C49.2873664,9.13043478 60.8695652,20.7126336 60.8695652,35 C60.8695652,49.2873664 49.2873664,60.8695652 35,60.8695652 C20.7126336,60.8695652 9.13043478,49.2873664 9.13043478,35 C9.13043478,20.7126336 20.7126336,9.13043478 35,9.13043478 Z" id="Oval"></path>
                            <path d="M36.7140644,14 C39.1644229,14 41.1781222,15.8386901 41.4065492,18.1897257 L41.4281289,18.6362251 L41.4281289,34.3159386 L51.3930966,39.2159934 C53.5847639,40.2937325 54.5497784,42.8239905 53.685022,45.0272896 L53.5012903,45.4361422 C52.4054567,47.5916203 49.8327173,48.5407003 47.5924262,47.690223 L47.1767092,47.5095251 L34.6058707,41.3278916 C33.1419085,40.607997 32.1722218,39.1990627 32.0207737,37.6166166 L32,37.1811257 L32,18.6362251 C32,16.0757087 34.1105585,14 36.7140644,14 Z" id="Path"></path>
                        </g>
                        <path d="M92.147651,56.9620253 C94.9090748,56.9620253 97.147651,59.2006016 97.147651,61.9620253 C97.147651,64.7234491 94.9090748,66.9620253 92.147651,66.9620253 C89.3862273,66.9620253 87.147651,64.7234491 87.147651,61.9620253 C87.147651,59.2006016 89.3862273,56.9620253 92.147651,56.9620253 Z" id="Path"></path>
                        <path d="M112.147651,56.9620253 C114.909075,56.9620253 117.147651,59.2006016 117.147651,61.9620253 C117.147651,64.7234491 114.909075,66.9620253 112.147651,66.9620253 C109.386227,66.9620253 107.147651,64.7234491 107.147651,61.9620253 C107.147651,59.2006016 109.386227,56.9620253 112.147651,56.9620253 Z" id="Path"></path>
                        <path d="M74.147651,56.9620253 C76.9090748,56.9620253 79.147651,59.2006016 79.147651,61.9620253 C79.147651,64.7234491 76.9090748,66.9620253 74.147651,66.9620253 C71.3862273,66.9620253 69.147651,64.7234491 69.147651,61.9620253 C69.147651,59.2006016 71.3862273,56.9620253 74.147651,56.9620253 Z" id="Path"></path>
                    </g>
                </g>
            </g>
        </g>
    </g>
</svg>