<?xml version="1.0" encoding="UTF-8"?>
<svg width="214px" height="294px" viewBox="0 0 214 294" version="1.1" xmlns="http://www.w3.org/2000/svg" xmlns:xlink="http://www.w3.org/1999/xlink">
    <!-- Generator: Sketch 62 (91390) - https://sketch.com -->
    <title>electric-charge copy</title>
    <desc>Created with Sketch.</desc>
    <g id="Page-1" stroke="none" stroke-width="1" fill="none" fill-rule="evenodd" opacity="0.200000003">
        <g id="REVITA-5_dashboard_v03" transform="translate(-1624.000000, -366.000000)" fill="#FFFFFF" fill-rule="nonzero">
            <g id="Group-22-Copy-3" transform="translate(1538.000000, 330.000000)">
                <g id="Rectangle">
                    <g id="electric-charge-copy" transform="translate(220.000000, 183.000000) scale(-1, 1) translate(-220.000000, -183.000000) translate(86.000000, 36.000000)">
                        <path d="M49.6363636,86 L136.363636,86 C141.685653,86 146,81.7019336 146,76.4 L146,47.6 C146,42.2980664 141.685653,38 136.363636,38 L49.6363636,38 C44.314347,38 40,42.2980664 40,47.6 L40,76.4 C40,81.7019336 44.314347,86 49.6363636,86 Z M49.6363636,47.6 L136.363636,47.6 L136.363636,76.4 L49.6363636,76.4 L49.6363636,47.6 Z" id="Shape"></path>
                        <path d="M266.561161,34.9517 L252.653708,21.07 C250.734677,19.1571285 247.623927,19.1571285 245.704895,21.07 L221.968853,44.737 C221.04356,45.6593132 220.525324,46.9114531 220.528965,48.216 L220.528965,90.65 C220.547834,91.1730277 220.652416,91.6894516 220.838565,92.1788 L220.779594,92.1788 L225.693888,106.8788 C226.355752,108.888406 228.236193,110.247711 230.357554,110.25 L230.357554,267.05 C230.357554,275.168586 223.75694,281.75 215.61467,281.75 C207.472401,281.75 206.400368,275.168586 206.400368,267.05 L206.400368,198.45 C206.400368,190.331414 199.799754,183.75 191.657485,183.75 L196.571779,186.2 C196.571779,178.081414 189.971165,171.5 181.828896,171.5 L176.914601,171.5 L176.914601,34.3 C176.892936,15.3655883 161.504188,0.0216023163 142.51454,0 L44.2286503,0 C25.2390023,0.0216023163 9.85025429,15.3655883 9.82858896,34.3 L9.82858896,254.8 L4.91429448,254.8 C2.20020458,254.8 0,256.993805 0,259.7 L0,289.1 C0,291.806195 2.20020458,294 4.91429448,294 L181.828896,294 C184.542986,294 186.74319,291.806195 186.74319,289.1 L186.74319,259.7 C186.74319,256.993805 184.542986,254.8 181.828896,254.8 L176.914601,254.8 L176.914601,210.7 L181.828896,210.7 C189.971165,210.7 196.571779,204.118586 196.571779,196 L191.657485,193.55 C194.371575,193.55 196.571779,195.743805 196.571779,198.45 L196.571779,267.05 C196.571779,280.580976 202.044221,291.55 215.61467,291.55 C229.18512,291.55 240.186143,280.580976 240.186143,267.05 L240.186143,110.25 C242.302274,110.250508 244.181111,108.900259 244.849808,106.8984 L249.764103,92.1984 L249.705131,92.1984 C249.893393,91.7028592 249.99801,91.1796408 250.014732,90.65 L250.014732,58.3786 L266.561161,41.8803 C268.479613,39.9668507 268.479613,36.8651493 266.561161,34.9517 Z M44.2286503,9.8 L142.51454,9.8 C156.078254,9.81619997 167.069765,20.7757396 167.086012,34.3 L167.086012,117.6 L19.6571779,117.6 L19.6571779,34.3 C19.6734251,20.7757396 30.6649364,9.81619997 44.2286503,9.8 Z M176.914601,284.2 L9.82858896,284.2 L9.82858896,264.6 L176.914601,264.6 L176.914601,284.2 Z M19.6571779,254.8 L19.6571779,127.4 L167.086012,127.4 L167.086012,254.8 L19.6571779,254.8 Z M186.74319,196 C186.74319,198.706195 184.542986,200.9 181.828896,200.9 L176.914601,200.9 L176.914601,181.3 L181.828896,181.3 C184.542986,181.3 186.74319,183.493805 186.74319,186.2 L186.74319,196 Z M230.357554,50.2446 L238.564425,42.0616 L245.523066,49 L241.626031,52.8857 C240.704358,53.8044144 240.186421,55.0505454 240.186143,56.35 L240.186143,85.75 L230.357554,85.75 L230.357554,50.2446 Z M233.90076,100.45 L232.259386,95.55 L238.284311,95.55 L236.642936,100.45 L233.90076,100.45 Z M252.471879,42.0714 L245.513238,35.133 L249.179302,31.4776 L256.137943,38.416 L252.471879,42.0714 Z" id="Shape"></path>
                        <g id="x-circle" transform="translate(58.000000, 154.000000)">
                            <path d="M35,0 C15.6700338,0 0,15.6700338 0,35 C0,54.3299662 15.6700338,70 35,70 C54.3299662,70 70,54.3299662 70,35 C70,15.6700338 54.3299662,0 35,0 Z M35,9.13043478 C49.2873664,9.13043478 60.8695652,20.7126336 60.8695652,35 C60.8695652,49.2873664 49.2873664,60.8695652 35,60.8695652 C20.7126336,60.8695652 9.13043478,49.2873664 9.13043478,35 C9.13043478,20.7126336 20.7126336,9.13043478 35,9.13043478 Z" id="Oval"></path>
                            <path d="M40.8659044,22.7177563 C42.6377276,20.9459331 45.5104206,20.9459331 47.2822437,22.7177563 C48.943328,24.3788405 49.0471457,27.0074861 47.593697,28.7895155 L47.2822437,29.1340956 L29.1340956,47.2822437 C27.3622724,49.0540669 24.4895794,49.0540669 22.7177563,47.2822437 C21.056672,45.6211595 20.9528543,42.9925139 22.406303,41.2104845 L22.7177563,40.8659044 L40.8659044,22.7177563 Z" id="Path"></path>
                            <path d="M22.7177563,22.7177563 C24.3788405,21.056672 27.0074861,20.9528543 28.7895155,22.406303 L29.1340956,22.7177563 L47.2822437,40.8659044 C49.0540669,42.6377276 49.0540669,45.5104206 47.2822437,47.2822437 C45.6211595,48.943328 42.9925139,49.0471457 41.2104845,47.593697 L40.8659044,47.2822437 L22.7177563,29.1340956 C20.9459331,27.3622724 20.9459331,24.4895794 22.7177563,22.7177563 Z" id="Path"></path>
                        </g>
                        <path d="M93,58 C95.7614237,58 98,60.2385763 98,63 C98,65.7614237 95.7614237,68 93,68 C90.2385763,68 88,65.7614237 88,63 C88,60.2385763 90.2385763,58 93,58 Z" id="Path"></path>
                        <path d="M113,58 C115.761424,58 118,60.2385763 118,63 C118,65.7614237 115.761424,68 113,68 C110.238576,68 108,65.7614237 108,63 C108,60.2385763 110.238576,58 113,58 Z" id="Path"></path>
                        <path d="M75,58 C77.7614237,58 80,60.2385763 80,63 C80,65.7614237 77.7614237,68 75,68 C72.2385763,68 70,65.7614237 70,63 C70,60.2385763 72.2385763,58 75,58 Z" id="Path"></path>
                    </g>
                </g>
            </g>
        </g>
    </g>
</svg>