<?xml version="1.0" encoding="UTF-8"?>
<svg width="214px" height="295px" viewBox="0 0 214 295" version="1.1" xmlns="http://www.w3.org/2000/svg" xmlns:xlink="http://www.w3.org/1999/xlink">
    <!-- Generator: Sketch 62 (91390) - https://sketch.com -->
    <title>electric-charge copy 5</title>
    <desc>Created with Sketch.</desc>
    <g id="Page-1" stroke="none" stroke-width="1" fill="none" fill-rule="evenodd" opacity="0.200000003">
        <g id="REVITA-5_dashboard_v03" transform="translate(-2606.000000, -364.000000)" fill="#FFFFFF" fill-rule="nonzero">
            <g id="Group-22-Copy-5" transform="translate(2520.000000, 330.000000)">
                <g id="Rectangle">
                    <g id="electric-charge-copy-5" transform="translate(220.500000, 181.500000) scale(-1, 1) translate(-220.500000, -181.500000) translate(86.000000, 34.000000)">
                        <path d="M48.6363636,88 L135.363636,88 C140.685653,88 145,83.7019336 145,78.4 L145,49.6 C145,44.2980664 140.685653,40 135.363636,40 L48.6363636,40 C43.314347,40 39,44.2980664 39,49.6 L39,78.4 C39,83.7019336 43.314347,88 48.6363636,88 Z M48.6363636,49.6 L135.363636,49.6 L135.363636,78.4 L48.6363636,78.4 L48.6363636,49.6 Z" id="Shape"></path>
                        <path d="M266.708812,35.9137253 L252.801359,22.0320253 C250.882328,20.1191538 247.771578,20.1191538 245.852546,22.0320253 L222.116504,45.6990253 C221.191211,46.6213385 220.672975,47.8734784 220.676616,49.1780253 L220.676616,91.6120253 C220.695485,92.135053 220.800067,92.6514769 220.986216,93.1408253 L220.927245,93.1408253 L225.841539,107.840825 C226.503403,109.850431 228.383844,111.209736 230.505205,111.212025 L230.505205,268.012025 C230.505205,276.130611 223.904591,282.712025 215.762321,282.712025 C207.620052,282.712025 206.548019,276.130611 206.548019,268.012025 L206.548019,199.412025 C206.548019,191.293439 199.947405,184.712025 191.805136,184.712025 L196.71943,187.162025 C196.71943,179.043439 190.118816,172.462025 181.976547,172.462025 L177.062252,172.462025 L177.062252,35.2620253 C177.040587,16.3276136 161.651839,0.983627633 142.662191,0.962025316 L44.3763013,0.962025316 C25.3866534,0.983627633 9.9979053,16.3276136 9.97623997,35.2620253 L9.97623997,255.762025 L5.06194549,255.762025 C2.34785559,255.762025 0.147651007,257.95583 0.147651007,260.662025 L0.147651007,290.062025 C0.147651007,292.768221 2.34785559,294.962025 5.06194549,294.962025 L181.976547,294.962025 C184.690637,294.962025 186.890841,292.768221 186.890841,290.062025 L186.890841,260.662025 C186.890841,257.95583 184.690637,255.762025 181.976547,255.762025 L177.062252,255.762025 L177.062252,211.662025 L181.976547,211.662025 C190.118816,211.662025 196.71943,205.080611 196.71943,196.962025 L191.805136,194.512025 C194.519226,194.512025 196.71943,196.70583 196.71943,199.412025 L196.71943,268.012025 C196.71943,281.543002 202.191872,292.512025 215.762321,292.512025 C229.332771,292.512025 240.333794,281.543002 240.333794,268.012025 L240.333794,111.212025 C242.449925,111.212533 244.328762,109.862285 244.997459,107.860425 L249.911754,93.1604253 L249.852782,93.1604253 C250.041044,92.6648846 250.145661,92.1416661 250.162383,91.6120253 L250.162383,59.3406253 L266.708812,42.8423253 C268.627264,40.928876 268.627264,37.8271746 266.708812,35.9137253 Z M44.3763013,10.7620253 L142.662191,10.7620253 C156.225905,10.7782253 167.217416,21.7377649 167.233663,35.2620253 L167.233663,118.562025 L19.8048289,118.562025 L19.8048289,35.2620253 C19.8210762,21.7377649 30.8125874,10.7782253 44.3763013,10.7620253 Z M177.062252,285.162025 L9.97623997,285.162025 L9.97623997,265.562025 L177.062252,265.562025 L177.062252,285.162025 Z M19.8048289,255.762025 L19.8048289,128.362025 L167.233663,128.362025 L167.233663,255.762025 L19.8048289,255.762025 Z M186.890841,196.962025 C186.890841,199.668221 184.690637,201.862025 181.976547,201.862025 L177.062252,201.862025 L177.062252,182.262025 L181.976547,182.262025 C184.690637,182.262025 186.890841,184.45583 186.890841,187.162025 L186.890841,196.962025 Z M230.505205,51.2066253 L238.712077,43.0236253 L245.670717,49.9620253 L241.773682,53.8477253 C240.852009,54.7664397 240.334072,56.0125707 240.333794,57.3120253 L240.333794,86.7120253 L230.505205,86.7120253 L230.505205,51.2066253 Z M234.048411,101.412025 L232.407037,96.5120253 L238.431962,96.5120253 L236.790587,101.412025 L234.048411,101.412025 Z M252.61953,43.0334253 L245.660889,36.0950253 L249.326953,32.4396253 L256.285594,39.3780253 L252.61953,43.0334253 Z" id="Shape"></path>
                        <g id="alert-triangle" transform="translate(59.000000, 157.000000)">
                            <path d="M35,0.15866332 C31.4317476,0.15866332 28.1224706,2.02181342 26.271875,5.07266918 L1.55516336,46.3351474 C-0.294183595,49.5366714 -0.305013075,53.4043398 1.49117679,56.5555501 C3.28736666,59.7067604 6.62079027,61.6682045 10.2477498,61.7083333 L59.7041667,61.7083333 C63.3792097,61.6682045 66.7126333,59.7067604 68.5088232,56.5555501 C70.3050131,53.4043398 70.2941836,49.5366714 68.4803752,46.3955691 L43.74067,5.09348069 C41.8775294,2.02181342 38.5682524,0.15866332 35,0.15866332 Z M35,8.90866332 C35.5097503,8.90866332 35.9825042,9.17482762 36.246875,9.61066416 L60.9384967,50.8315193 C61.1620736,51.2198265 61.1636206,51.7723505 60.9070221,52.2225234 C60.6504235,52.6726963 60.1742202,52.9529026 59.6560831,52.9585976 L10.2958333,52.9585976 C9.82577983,52.9529026 9.34957646,52.6726963 9.09297791,52.2225234 C8.83637936,51.7723505 8.83792642,51.2198265 9.0970419,50.7710976 L33.76567,9.58985264 C34.0174958,9.17482762 34.4902497,8.90866332 35,8.90866332 Z" id="Path"></path>
                            <path d="M35,17.9583333 C37.2741137,17.9583333 39.1429753,19.6934236 39.3549725,21.9119916 L39.375,22.3333333 L39.375,34 C39.375,36.4162458 37.4162458,38.375 35,38.375 C32.7258863,38.375 30.8570247,36.6399098 30.6450275,34.4213417 L30.625,34 L30.625,22.3333333 C30.625,19.9170876 32.5837542,17.9583333 35,17.9583333 Z" id="Path"></path>
                            <path d="M35.0291667,41.2916667 C37.4454124,41.2916667 39.4041667,43.2504209 39.4041667,45.6666667 C39.4041667,47.9407803 37.6690764,49.809642 35.4505084,50.0216391 L35,50.0416667 C32.5837542,50.0416667 30.625,48.0829124 30.625,45.6666667 C30.625,43.392553 32.3600902,41.5236914 34.5786583,41.3116942 L35.0291667,41.2916667 Z" id="Path"></path>
                        </g>
                        <path d="M93.147651,58.9620253 C95.9090748,58.9620253 98.147651,61.2006016 98.147651,63.9620253 C98.147651,66.7234491 95.9090748,68.9620253 93.147651,68.9620253 C90.3862273,68.9620253 88.147651,66.7234491 88.147651,63.9620253 C88.147651,61.2006016 90.3862273,58.9620253 93.147651,58.9620253 Z" id="Path"></path>
                        <path d="M113.147651,58.9620253 C115.909075,58.9620253 118.147651,61.2006016 118.147651,63.9620253 C118.147651,66.7234491 115.909075,68.9620253 113.147651,68.9620253 C110.386227,68.9620253 108.147651,66.7234491 108.147651,63.9620253 C108.147651,61.2006016 110.386227,58.9620253 113.147651,58.9620253 Z" id="Path"></path>
                        <path d="M75.147651,58.9620253 C77.9090748,58.9620253 80.147651,61.2006016 80.147651,63.9620253 C80.147651,66.7234491 77.9090748,68.9620253 75.147651,68.9620253 C72.3862273,68.9620253 70.147651,66.7234491 70.147651,63.9620253 C70.147651,61.2006016 72.3862273,58.9620253 75.147651,58.9620253 Z" id="Path"></path>
                    </g>
                </g>
            </g>
        </g>
    </g>
</svg>