<?xml version="1.0" encoding="UTF-8"?>
<svg width="214px" height="294px" viewBox="0 0 214 294" version="1.1" xmlns="http://www.w3.org/2000/svg" xmlns:xlink="http://www.w3.org/1999/xlink">
    <!-- Generator: Sketch 62 (91390) - https://sketch.com -->
    <title>electric-charge copy 2</title>
    <desc>Created with Sketch.</desc>
    <g id="Page-1" stroke="none" stroke-width="1" fill="none" fill-rule="evenodd" opacity="0.200000003">
        <g id="REVITA-5_dashboard_v03" transform="translate(-969.000000, -366.000000)" fill="#FFFFFF" fill-rule="nonzero">
            <g id="Group-22-Copy" transform="translate(883.000000, 330.000000)">
                <g id="Rectangle">
                    <g id="electric-charge-copy-2" transform="translate(220.000000, 183.000000) scale(-1, 1) translate(-220.000000, -183.000000) translate(86.000000, 36.000000)">
                        <path d="M49.6363636,86 L136.363636,86 C141.685653,86 146,81.7019336 146,76.4 L146,47.6 C146,42.2980664 141.685653,38 136.363636,38 L49.6363636,38 C44.314347,38 40,42.2980664 40,47.6 L40,76.4 C40,81.7019336 44.314347,86 49.6363636,86 Z M49.6363636,47.6 L136.363636,47.6 L136.363636,76.4 L49.6363636,76.4 L49.6363636,47.6 Z" id="Shape"></path>
                        <path d="M266.561161,34.9517 L252.653708,21.07 C250.734677,19.1571285 247.623927,19.1571285 245.704895,21.07 L221.968853,44.737 C221.04356,45.6593132 220.525324,46.9114531 220.528965,48.216 L220.528965,90.65 C220.547834,91.1730277 220.652416,91.6894516 220.838565,92.1788 L220.779594,92.1788 L225.693888,106.8788 C226.355752,108.888406 228.236193,110.247711 230.357554,110.25 L230.357554,267.05 C230.357554,275.168586 223.75694,281.75 215.61467,281.75 C207.472401,281.75 206.400368,275.168586 206.400368,267.05 L206.400368,198.45 C206.400368,190.331414 199.799754,183.75 191.657485,183.75 L196.571779,186.2 C196.571779,178.081414 189.971165,171.5 181.828896,171.5 L176.914601,171.5 L176.914601,34.3 C176.892936,15.3655883 161.504188,0.0216023163 142.51454,0 L44.2286503,0 C25.2390023,0.0216023163 9.85025429,15.3655883 9.82858896,34.3 L9.82858896,254.8 L4.91429448,254.8 C2.20020458,254.8 0,256.993805 0,259.7 L0,289.1 C0,291.806195 2.20020458,294 4.91429448,294 L181.828896,294 C184.542986,294 186.74319,291.806195 186.74319,289.1 L186.74319,259.7 C186.74319,256.993805 184.542986,254.8 181.828896,254.8 L176.914601,254.8 L176.914601,210.7 L181.828896,210.7 C189.971165,210.7 196.571779,204.118586 196.571779,196 L191.657485,193.55 C194.371575,193.55 196.571779,195.743805 196.571779,198.45 L196.571779,267.05 C196.571779,280.580976 202.044221,291.55 215.61467,291.55 C229.18512,291.55 240.186143,280.580976 240.186143,267.05 L240.186143,110.25 C242.302274,110.250508 244.181111,108.900259 244.849808,106.8984 L249.764103,92.1984 L249.705131,92.1984 C249.893393,91.7028592 249.99801,91.1796408 250.014732,90.65 L250.014732,58.3786 L266.561161,41.8803 C268.479613,39.9668507 268.479613,36.8651493 266.561161,34.9517 Z M44.2286503,9.8 L142.51454,9.8 C156.078254,9.81619997 167.069765,20.7757396 167.086012,34.3 L167.086012,117.6 L19.6571779,117.6 L19.6571779,34.3 C19.6734251,20.7757396 30.6649364,9.81619997 44.2286503,9.8 Z M176.914601,284.2 L9.82858896,284.2 L9.82858896,264.6 L176.914601,264.6 L176.914601,284.2 Z M19.6571779,254.8 L19.6571779,127.4 L167.086012,127.4 L167.086012,254.8 L19.6571779,254.8 Z M186.74319,196 C186.74319,198.706195 184.542986,200.9 181.828896,200.9 L176.914601,200.9 L176.914601,181.3 L181.828896,181.3 C184.542986,181.3 186.74319,183.493805 186.74319,186.2 L186.74319,196 Z M230.357554,50.2446 L238.564425,42.0616 L245.523066,49 L241.626031,52.8857 C240.704358,53.8044144 240.186421,55.0505454 240.186143,56.35 L240.186143,85.75 L230.357554,85.75 L230.357554,50.2446 Z M233.90076,100.45 L232.259386,95.55 L238.284311,95.55 L236.642936,100.45 L233.90076,100.45 Z M252.471879,42.0714 L245.513238,35.133 L249.179302,31.4776 L256.137943,38.416 L252.471879,42.0714 Z" id="Shape"></path>
                        <g id="check-circle-(2)" transform="translate(95.000000, 191.000000) scale(-1, 1) translate(-95.000000, -191.000000) translate(60.000000, 156.000000)">
                            <path d="M8.39413351,12.2607645 C18.4650426,0.478558963 35.0865925,-3.27662304 49.2450581,3.0316217 C51.5480781,4.05772258 52.583173,6.75639025 51.5570072,9.05926466 C50.5308415,11.3621391 47.8320032,12.3971685 45.5289831,11.3710676 C35.0640303,6.70845196 22.7785369,9.48402127 15.3348215,18.192608 C7.89110609,26.9011946 7.06238514,39.4682689 13.298067,49.0788133 C19.5337488,58.6893577 31.3483905,63.0539812 42.3350126,59.8057855 C53.0600483,56.6349278 60.5019735,46.946817 60.8563641,35.8326046 L60.8695911,35.0168983 L60.8695911,32.2170833 C60.8695911,29.6959499 62.9135027,27.6521675 65.4347955,27.6521675 C67.807777,27.6521675 69.757888,29.4625768 69.9791018,31.7774514 L70,32.2170833 L70,35.0195084 C69.9911366,50.5188849 59.7880571,64.1663282 44.9238038,68.5609459 C30.0595505,72.9555635 14.0750351,67.0504847 5.63852443,54.0479835 C-2.79798628,41.0454822 -1.67677558,24.04297 8.39413351,12.2607645 Z" id="Path"></path>
                            <path d="M62.2186065,7.21391438 C63.9974499,5.37443985 66.882967,5.37295015 68.6635893,7.21058704 C70.3329227,8.93337164 70.4385235,11.6609666 68.9794809,13.5108666 L68.6668102,13.8685863 L38.2848658,45.2860856 C36.6166107,47.0112024 33.9751537,47.1196772 32.1845151,45.611039 L31.838272,45.2877497 L22.7236887,35.8719157 C20.9439556,34.0333598 20.9439556,31.0524716 22.7236887,29.2139157 C24.3921885,27.4902695 27.0325691,27.3825416 28.822554,28.890732 L29.1686724,29.2139157 L35.0546875,35.2954778 L62.2186065,7.21391438 Z" id="Path"></path>
                        </g>
                        <path d="M91,58 C93.7614237,58 96,60.2385763 96,63 C96,65.7614237 93.7614237,68 91,68 C88.2385763,68 86,65.7614237 86,63 C86,60.2385763 88.2385763,58 91,58 Z" id="Path"></path>
                        <path d="M111,58 C113.761424,58 116,60.2385763 116,63 C116,65.7614237 113.761424,68 111,68 C108.238576,68 106,65.7614237 106,63 C106,60.2385763 108.238576,58 111,58 Z" id="Path"></path>
                        <path d="M73,58 C75.7614237,58 78,60.2385763 78,63 C78,65.7614237 75.7614237,68 73,68 C70.2385763,68 68,65.7614237 68,63 C68,60.2385763 70.2385763,58 73,58 Z" id="Path"></path>
                    </g>
                </g>
            </g>
        </g>
    </g>
</svg>