<?xml version="1.0" encoding="UTF-8"?>
<svg width="230px" height="294px" viewBox="0 0 230 294" version="1.1" xmlns="http://www.w3.org/2000/svg" xmlns:xlink="http://www.w3.org/1999/xlink">
    <!-- Generator: Sketch 62 (91390) - https://sketch.com -->
    <title>electric-charge</title>
    <desc>Created with Sketch.</desc>
    <g id="Page-1" stroke="none" stroke-width="1" fill="none" fill-rule="evenodd" opacity="0.200000003">
        <g id="REVITA-5_dashboard_v03" transform="translate(-626.000000, -368.000000)" fill="#FFFFFF" fill-rule="nonzero">
            <g id="Group-22" transform="translate(556.000000, 330.000000)">
                <g id="Rectangle">
                    <g id="electric-charge" transform="translate(204.000000, 185.000000) scale(-1, 1) translate(-204.000000, -185.000000) translate(70.000000, 38.000000)">
                        <path d="M48.7840146,86.9620253 L135.511287,86.9620253 C140.833304,86.9620253 145.147651,82.6639589 145.147651,77.3620253 L145.147651,48.5620253 C145.147651,43.2600917 140.833304,38.9620253 135.511287,38.9620253 L48.7840146,38.9620253 C43.461998,38.9620253 39.147651,43.2600917 39.147651,48.5620253 L39.147651,77.3620253 C39.147651,82.6639589 43.461998,86.9620253 48.7840146,86.9620253 Z M48.7840146,48.5620253 L135.511287,48.5620253 L135.511287,77.3620253 L48.7840146,77.3620253 L48.7840146,48.5620253 Z" id="Shape"></path>
                        <path d="M266.561161,34.9517 L252.653708,21.07 C250.734677,19.1571285 247.623927,19.1571285 245.704895,21.07 L221.968853,44.737 C221.04356,45.6593132 220.525324,46.9114531 220.528965,48.216 L220.528965,90.65 C220.547834,91.1730277 220.652416,91.6894516 220.838565,92.1788 L220.779594,92.1788 L225.693888,106.8788 C226.355752,108.888406 228.236193,110.247711 230.357554,110.25 L230.357554,267.05 C230.357554,275.168586 223.75694,281.75 215.61467,281.75 C207.472401,281.75 206.400368,275.168586 206.400368,267.05 L206.400368,198.45 C206.400368,190.331414 199.799754,183.75 191.657485,183.75 L196.571779,186.2 C196.571779,178.081414 189.971165,171.5 181.828896,171.5 L176.914601,171.5 L176.914601,34.3 C176.892936,15.3655883 161.504188,0.0216023163 142.51454,0 L44.2286503,0 C25.2390023,0.0216023163 9.85025429,15.3655883 9.82858896,34.3 L9.82858896,254.8 L4.91429448,254.8 C2.20020458,254.8 0,256.993805 0,259.7 L0,289.1 C0,291.806195 2.20020458,294 4.91429448,294 L181.828896,294 C184.542986,294 186.74319,291.806195 186.74319,289.1 L186.74319,259.7 C186.74319,256.993805 184.542986,254.8 181.828896,254.8 L176.914601,254.8 L176.914601,210.7 L181.828896,210.7 C189.971165,210.7 196.571779,204.118586 196.571779,196 L191.657485,193.55 C194.371575,193.55 196.571779,195.743805 196.571779,198.45 L196.571779,267.05 C196.571779,280.580976 202.044221,291.55 215.61467,291.55 C229.18512,291.55 240.186143,280.580976 240.186143,267.05 L240.186143,110.25 C242.302274,110.250508 244.181111,108.900259 244.849808,106.8984 L249.764103,92.1984 L249.705131,92.1984 C249.893393,91.7028592 249.99801,91.1796408 250.014732,90.65 L250.014732,58.3786 L266.561161,41.8803 C268.479613,39.9668507 268.479613,36.8651493 266.561161,34.9517 Z M44.2286503,9.8 L142.51454,9.8 C156.078254,9.81619997 167.069765,20.7757396 167.086012,34.3 L167.086012,117.6 L19.6571779,117.6 L19.6571779,34.3 C19.6734251,20.7757396 30.6649364,9.81619997 44.2286503,9.8 Z M176.914601,284.2 L9.82858896,284.2 L9.82858896,264.6 L176.914601,264.6 L176.914601,284.2 Z M19.6571779,254.8 L19.6571779,127.4 L167.086012,127.4 L167.086012,254.8 L19.6571779,254.8 Z M186.74319,196 C186.74319,198.706195 184.542986,200.9 181.828896,200.9 L176.914601,200.9 L176.914601,181.3 L181.828896,181.3 C184.542986,181.3 186.74319,183.493805 186.74319,186.2 L186.74319,196 Z M230.357554,50.2446 L238.564425,42.0616 L245.523066,49 L241.626031,52.8857 C240.704358,53.8044144 240.186421,55.0505454 240.186143,56.35 L240.186143,85.75 L230.357554,85.75 L230.357554,50.2446 Z M233.90076,100.45 L232.259386,95.55 L238.284311,95.55 L236.642936,100.45 L233.90076,100.45 Z M252.471879,42.0714 L245.513238,35.133 L249.179302,31.4776 L256.137943,38.416 L252.471879,42.0714 Z" id="Shape"></path>
                        <path d="M63.8953157,193.770437 L63.6475807,194.220875 C62.3181657,196.985479 63.7833584,200.776436 66.3531541,200.776436 L91.5243431,200.776435 L88.77358,230.146913 C88.3773221,234.379231 92.3608823,236.687912 94.4061008,233.411252 L126.399986,182.153615 L126.647721,181.703177 C127.977136,178.938573 126.511944,175.147616 123.942148,175.147616 L98.7669588,175.147616 L101.521722,145.777138 C101.917979,141.54482 97.9344192,139.236139 95.8892007,142.512799 L63.8953157,193.770437 Z M94.1386869,158.663324 L92.3016441,178.521697 L92.2766026,179.066619 C92.2780051,181.40185 93.6819266,183.357414 95.4593216,183.357414 L117.301497,183.357413 L96.7759775,216.650337 L98.616999,196.797343 L98.6420405,196.252421 C98.640638,193.91719 97.2367165,191.961626 95.4593216,191.961626 L73.6091895,191.961625 L94.1386869,158.663324 Z" id="Path" transform="translate(95.147651, 187.962025) scale(-1, 1) translate(-95.147651, -187.962025) "></path>
                        <path d="M92.147651,58.9620253 C94.9090748,58.9620253 97.147651,61.2006016 97.147651,63.9620253 C97.147651,66.7234491 94.9090748,68.9620253 92.147651,68.9620253 C89.3862273,68.9620253 87.147651,66.7234491 87.147651,63.9620253 C87.147651,61.2006016 89.3862273,58.9620253 92.147651,58.9620253 Z" id="Path"></path>
                        <path d="M112.147651,58.9620253 C114.909075,58.9620253 117.147651,61.2006016 117.147651,63.9620253 C117.147651,66.7234491 114.909075,68.9620253 112.147651,68.9620253 C109.386227,68.9620253 107.147651,66.7234491 107.147651,63.9620253 C107.147651,61.2006016 109.386227,58.9620253 112.147651,58.9620253 Z" id="Path"></path>
                        <path d="M74.147651,58.9620253 C76.9090748,58.9620253 79.147651,61.2006016 79.147651,63.9620253 C79.147651,66.7234491 76.9090748,68.9620253 74.147651,68.9620253 C71.3862273,68.9620253 69.147651,66.7234491 69.147651,63.9620253 C69.147651,61.2006016 71.3862273,58.9620253 74.147651,58.9620253 Z" id="Path"></path>
                    </g>
                </g>
            </g>
        </g>
    </g>
</svg>