<?xml version="1.0" encoding="UTF-8"?>
<svg width="322px" height="53px" viewBox="0 0 322 53" version="1.1" xmlns="http://www.w3.org/2000/svg" xmlns:xlink="http://www.w3.org/1999/xlink">
    <!-- Generator: Sketch 62 (91390) - https://sketch.com -->
    <title>Group 38</title>
    <desc>Created with Sketch.</desc>
    <defs>
        <polygon id="path-1" points="0.339098917 0.180557942 6.25168936 0.180557942 6.25168936 8.93851197 0.339098917 8.93851197"></polygon>
        <polygon id="path-3" points="0.410136565 0.180557942 6.36600823 0.180557942 6.36600823 8.93851197 0.410136565 8.93851197"></polygon>
        <polygon id="path-5" points="0 52.4144933 321.899809 52.4144933 321.899809 0 0 0"></polygon>
    </defs>
    <g id="Page-1" stroke="none" stroke-width="1" fill="none" fill-rule="evenodd">
        <g id="REVITA-5_dashboard_v03" transform="translate(-66.000000, -44.000000)">
            <g id="Group-17">
                <g id="Group-14">
                    <g id="Group-38" transform="translate(66.000000, 44.000000)">
                        <g id="Group-3" transform="translate(37.165392, 43.475981)">
                            <mask id="mask-2" fill="white">
                                <use xlink:href="#path-1"></use>
                            </mask>
                            <g id="Clip-2"></g>
                            <path d="M6.25168936,6.46103872 C6.06868509,7.25938898 5.71914223,7.87238272 5.20400167,8.30096085 C4.67333633,8.72577539 4.0457587,8.93888833 3.31985744,8.93888833 C2.66405293,8.92242265 2.11645146,8.75682496 1.67799392,8.44209524 C1.23200922,8.13865629 0.907870548,7.78770208 0.705577908,7.39064397 C0.644419668,7.26032987 0.588906805,7.13660205 0.539509765,7.01804915 C0.493405861,6.89573267 0.455770021,6.74189618 0.425190901,6.55701011 C0.367796245,6.21028994 0.339098917,5.54507647 0.339098917,4.55948791 C0.339098917,3.55931547 0.367796245,2.88892707 0.425190901,2.55020451 C0.485878693,2.2119524 0.579497845,1.93768122 0.705577908,1.72880231 C0.907870548,1.33174419 1.23247967,0.977026403 1.67846437,0.665589828 C2.11739235,0.350860117 2.66452337,0.188555558 3.32126878,0.180557942 C4.12667575,0.188555558 4.78295071,0.434599861 5.2905641,0.918690852 C5.79770704,1.40654543 6.11855258,2.01013021 6.25168936,2.7294452 L4.91044212,2.7294452 C4.80741401,2.38272502 4.6201757,2.08634278 4.34872721,1.84170982 C4.06598796,1.60883807 3.72162003,1.48887383 3.31703475,1.47993531 C3.01830027,1.48887383 2.76284701,1.54956162 2.54879317,1.66435093 C2.3305053,1.78243338 2.15502819,1.93015405 2.02095051,2.10798339 C1.85676416,2.2942808 1.74809067,2.53279793 1.6944596,2.82494614 C1.63330136,3.13214868 1.60272224,3.71127017 1.60272224,4.55948791 C1.60272224,5.4081761 1.63330136,5.98259311 1.6944596,6.28273893 C1.74809067,6.5833552 1.85676416,6.82516547 2.02095051,7.01146288 C2.15502819,7.18929222 2.33097574,7.33324931 2.54926361,7.44333414 C2.76284701,7.57411869 3.01924117,7.63951096 3.3175052,7.63951096 C4.02835212,7.63951096 4.55995836,7.24574598 4.91185346,6.46103872 L6.25168936,6.46103872 Z" id="Fill-1" fill="#FFFFFF" mask="url(#mask-2)"></path>
                        </g>
                        <polygon id="Fill-4" fill="#FFFFFF" points="56.5963056 48.5785074 53.2862335 48.5785074 53.2862335 52.3435027 52.0221397 52.3435027 52.0221397 43.7277181 53.2862335 43.7277181 53.2862335 47.4221462 56.5963056 47.4221462 56.5963056 43.7277181 57.8599289 43.7277181 57.8599289 52.3435027 56.5963056 52.3435027"></polygon>
                        <path d="M71.2833157,49.2598572 L70.0756757,45.4901574 L70.0530942,45.4901574 L68.8454542,49.2598572 L71.2833157,49.2598572 Z M71.6436789,50.4162184 L68.4789752,50.4162184 L67.8377546,52.3436438 L66.4983891,52.3436438 L69.5318378,43.7278592 L70.5908163,43.7278592 L73.624265,52.3436438 L72.2905449,52.3436438 L71.6436789,50.4162184 Z" id="Fill-6" fill="#FFFFFF"></path>
                        <path d="M83.5151989,47.504851 L85.4313336,47.504851 C85.9060156,47.4959124 86.2616743,47.354778 86.4987801,47.0776842 C86.7321223,46.8208196 86.8487934,46.505149 86.8487934,46.129261 C86.8412663,45.6795127 86.7015432,45.3539627 86.4300947,45.1521405 C86.2155704,44.9747816 85.9060156,44.8853965 85.5004895,44.8853965 L83.5151989,44.8853965 L83.5151989,47.504851 Z M82.2511051,43.7280944 L85.5122507,43.7280944 C86.2071024,43.7280944 86.7749331,43.9167441 87.2138611,44.2954547 C87.7426446,44.7249737 88.0183272,45.3370266 88.0418496,46.1330246 C88.0258543,47.3030288 87.4890732,48.0990268 86.4300947,48.5200777 L88.3617542,52.3434086 L86.8600842,52.3434086 L85.1330696,48.6612121 L83.5151989,48.6612121 L83.5151989,52.3434086 L82.2511051,52.3434086 L82.2511051,43.7280944 Z" id="Fill-8" fill="#FFFFFF"></path>
                        <g id="Group-12" transform="translate(96.441840, 43.475981)">
                            <mask id="mask-4" fill="white">
                                <use xlink:href="#path-3"></use>
                            </mask>
                            <g id="Clip-11"></g>
                            <path d="M3.39936315,4.12902799 L6.36600823,4.12902799 L6.36600823,5.88191724 C6.350013,6.74377797 6.06445106,7.4654452 5.50791108,8.04691893 C4.94713706,8.62651086 4.24146507,8.92242265 3.39089508,8.93888833 C2.73509057,8.92242265 2.1874891,8.75682496 1.74903157,8.44209524 C1.30304687,8.13865629 0.978437747,7.78770208 0.776615556,7.39064397 C0.715457316,7.26032987 0.659944452,7.13660205 0.610547413,7.01804915 C0.564913957,6.89573267 0.526807669,6.74189618 0.496228549,6.55701011 C0.438833893,6.21028994 0.410136565,5.54507647 0.410136565,4.55948791 C0.410136565,3.55931547 0.438833893,2.88892707 0.496228549,2.55067496 C0.556916341,2.2119524 0.650535492,1.93768122 0.776615556,1.72880231 C0.978437747,1.33174419 1.30304687,0.977026403 1.74903157,0.665589828 C2.1874891,0.350860117 2.73509057,0.188555558 3.39089508,0.180557942 C4.19536116,0.188555558 4.85163612,0.434599861 5.35877906,0.919631748 C5.86639245,1.40748632 6.18629709,2.0129529 6.31990432,2.73367923 L4.97912753,2.73367923 C4.87656986,2.38507726 4.68886111,2.08775413 4.41788307,1.84265072 C4.13514382,1.60930851 3.79171678,1.48887383 3.38666105,1.47993531 C3.08886747,1.48887383 2.83294376,1.54956162 2.61888992,1.66435093 C2.4010725,1.78243338 2.22559539,1.93015405 2.09245861,2.10798339 C1.92780181,2.2942808 1.81865787,2.53279793 1.76549725,2.82494614 C1.70433901,3.13214868 1.67423034,3.71127017 1.67423034,4.55948791 C1.67423034,5.4081761 1.70433901,5.98259311 1.76549725,6.28273893 C1.81912832,6.5833552 1.92827226,6.82516547 2.09245861,7.01146288 C2.22606584,7.18929222 2.40201339,7.33324931 2.61983081,7.44333414 C2.83388465,7.57411869 3.09027881,7.63951096 3.3880724,7.63951096 C3.8811019,7.63951096 4.28803942,7.4654452 4.6093554,7.11778413 C4.93020094,6.78564784 5.09485774,6.34860165 5.1023849,5.807116 L5.1023849,5.35642682 L3.39936315,5.35642682 L3.39936315,4.12902799 Z" id="Fill-10" fill="#FFFFFF" mask="url(#mask-4)"></path>
                        </g>
                        <mask id="mask-6" fill="white">
                            <use xlink:href="#path-5"></use>
                        </mask>
                        <g id="Clip-14"></g>
                        <polygon id="Fill-13" fill="#FFFFFF" mask="url(#mask-6)" points="112.019784 52.3434557 113.283408 52.3434557 113.283408 43.7281415 112.019784 43.7281415"></polygon>
                        <polygon id="Fill-15" fill="#FFFFFF" mask="url(#mask-6)" points="122.643253 43.7279533 123.834427 43.7279533 127.613536 49.8527158 127.636588 49.8527158 127.636588 43.7279533 128.900211 43.7279533 128.900211 52.3432675 127.703391 52.3432675 123.929928 46.2189754 123.906876 46.2189754 123.906876 52.3432675 122.643253 52.3432675"></polygon>
                        <path d="M141.130824,47.6050093 L144.097469,47.6050093 L144.097469,49.3578986 C144.081474,50.2197593 143.795912,50.9414265 143.239372,51.5229003 C142.678598,52.1024922 141.972926,52.398404 141.122356,52.4148697 C140.466552,52.398404 139.91895,52.2328063 139.480493,51.9180766 C139.034037,51.6146376 138.709899,51.2636834 138.508077,50.8666253 C138.446918,50.7363112 138.391405,50.6125834 138.342008,50.4940305 C138.296375,50.371714 138.258269,50.2178775 138.22769,50.0329915 C138.170295,49.6862713 138.141598,49.0210578 138.141598,48.0354693 C138.141598,47.0352968 138.170295,46.3649084 138.22769,46.0266563 C138.288377,45.6879337 138.381997,45.4136626 138.508077,45.2047836 C138.709899,44.8077255 139.034037,44.4530077 139.480493,44.1415712 C139.91895,43.8268415 140.466552,43.6645369 141.122356,43.6565393 C141.926822,43.6645369 142.583097,43.9105812 143.09024,44.3956131 C143.597853,44.8834677 143.917758,45.4889342 144.051365,46.2096606 L142.710589,46.2096606 C142.608031,45.8610586 142.420322,45.5637355 142.149344,45.3186321 C141.866605,45.0852899 141.522707,44.9648552 141.118122,44.9559167 C140.820328,44.9648552 140.564405,45.025543 140.350351,45.1403323 C140.132534,45.2584147 139.957056,45.4061354 139.82392,45.5839647 C139.659263,45.7702621 139.550119,46.0087793 139.496958,46.3009275 C139.4358,46.60813 139.405691,47.1872515 139.405691,48.0354693 C139.405691,48.8841574 139.4358,49.4585744 139.496958,49.7587203 C139.550589,50.0593365 139.659733,50.3011468 139.82392,50.4874442 C139.957527,50.6652736 140.133474,50.8092307 140.351292,50.9193155 C140.565346,51.0501 140.821269,51.1154923 141.119533,51.1154923 C141.612563,51.1154923 142.0195,50.9414265 142.340816,50.5937655 C142.661662,50.2616292 142.826319,49.824583 142.833846,49.2830973 L142.833846,48.8324082 L141.130824,48.8324082 L141.130824,47.6050093 Z" id="Fill-16" fill="#FFFFFF" mask="url(#mask-6)"></path>
                        <path d="M174.222983,50.2558897 C174.887256,50.8204273 175.677608,51.1069301 176.594512,51.1153982 C177.679365,51.099403 178.228848,50.6990517 178.243902,49.913874 C178.2519,49.2717125 177.889184,48.8850042 177.156226,48.7551606 C176.820327,48.7076454 176.452436,48.6544847 176.051615,48.5956787 C175.333711,48.4728918 174.787521,48.1995615 174.413515,47.7733356 C174.028688,47.335819 173.835804,46.8032719 173.835804,46.1766351 C173.835804,45.4239183 174.077615,44.8160995 174.562647,44.3550605 C175.031213,43.8973146 175.696426,43.6644428 176.558287,43.6569156 C177.594684,43.680438 178.496062,43.9768203 179.262893,44.5465328 L178.558632,45.6200951 C177.932466,45.1933988 177.24373,44.9722882 176.491013,44.9558226 C176.101482,44.9558226 175.777343,45.0564984 175.517186,45.2583206 C175.246208,45.4667291 175.106955,45.7781657 175.098957,46.1926304 C175.098957,46.4410269 175.193047,46.6654306 175.379344,46.8667823 C175.566583,47.0714272 175.866729,47.2135025 176.278371,47.2925378 C176.507008,47.331585 176.820327,47.3772184 177.217385,47.4284972 C177.99974,47.539523 178.578391,47.8288485 178.952397,48.2983556 C179.32264,48.7589242 179.507526,49.2961758 179.507526,49.9063469 C179.465656,51.5552671 178.489476,52.3907827 176.579457,52.4147756 C175.344061,52.4147756 174.28226,52.0228924 173.394054,51.2386556 L174.222983,50.2558897 Z" id="Fill-17" fill="#FFFFFF" mask="url(#mask-6)"></path>
                        <path d="M189.546557,48.0354693 C189.546557,48.8841574 189.576665,49.4585744 189.637823,49.7587203 C189.691925,50.0593365 189.800598,50.3011468 189.964785,50.4874442 C190.098862,50.6652736 190.27434,50.8092307 190.492157,50.9193155 C190.706681,51.0501 190.962605,51.1154923 191.260399,51.1154923 C191.562426,51.1154923 191.824466,51.0501 192.046047,50.9193155 C192.256807,50.8092307 192.424287,50.6652736 192.550367,50.4874442 C192.714553,50.3011468 192.828402,50.0593365 192.888619,49.7587203 C192.946484,49.4585744 192.974711,48.8841574 192.974711,48.0354693 C192.974711,47.1872515 192.946484,46.60813 192.888619,46.300457 C192.828402,46.0087793 192.714553,45.7702621 192.550367,45.5839647 C192.424287,45.4061354 192.256807,45.2584147 192.046047,45.1403323 C191.824466,45.025543 191.562426,44.9648552 191.260399,44.9559167 C190.962605,44.9648552 190.706681,45.025543 190.492157,45.1403323 C190.27434,45.2584147 190.098862,45.4061354 189.964785,45.5839647 C189.800598,45.7702621 189.691925,46.0087793 189.637823,46.300457 C189.576665,46.60813 189.546557,47.1872515 189.546557,48.0354693 M188.282933,48.0354693 C188.282933,47.0329446 188.311631,46.3616153 188.369025,46.0224223 C188.429713,45.6827588 188.522391,45.4084876 188.649412,45.1991383 C188.850764,44.8034915 189.175373,44.4497146 189.621828,44.1396894 C190.060286,43.8259006 190.607887,43.6645369 191.263692,43.6565393 C191.927494,43.6645369 192.48027,43.8268415 192.922491,44.1415712 C193.361419,44.4530077 193.678031,44.8077255 193.872326,45.2047836 C194.01346,45.4136626 194.110373,45.6879337 194.164004,46.0261859 C194.213401,46.3649084 194.238805,47.0352968 194.238805,48.0354693 C194.238805,49.0210578 194.213401,49.6862713 194.164004,50.0329915 C194.110373,50.3797116 194.01346,50.6577464 193.872326,50.8666253 C193.67709,51.2636834 193.360478,51.6146376 192.922491,51.9180766 C192.48027,52.2328063 191.927494,52.398404 191.263692,52.4148697 C190.607887,52.398404 190.060286,52.2328063 189.621828,51.9180766 C189.175373,51.6146376 188.850764,51.2636834 188.649412,50.8666253 C188.587784,50.7363112 188.532741,50.6125834 188.482874,50.4940305 C188.437711,50.371714 188.399604,50.2178775 188.369025,50.0329915 C188.311631,49.6862713 188.282933,49.0210578 188.282933,48.0354693" id="Fill-18" fill="#FFFFFF" mask="url(#mask-6)"></path>
                        <polygon id="Fill-19" fill="#FFFFFF" mask="url(#mask-6)" points="203.450506 43.7279533 204.7146 43.7279533 204.7146 51.1153982 208.782564 51.1153982 208.782564 52.3432675 203.450506 52.3432675"></polygon>
                        <path d="M217.530873,43.7279533 L218.794497,43.7279533 L218.794497,49.2872373 C218.802024,49.8748268 218.966681,50.3226933 219.287056,50.6298959 C219.600374,50.9530937 220.004019,51.1153982 220.497519,51.1153982 C220.990548,51.1153982 221.397015,50.9530937 221.717861,50.6298959 C222.030709,50.3226933 222.191131,49.8748268 222.199129,49.2872373 L222.199129,43.7279533 L223.462752,43.7279533 L223.462752,49.4241377 C223.447698,50.3302205 223.163077,51.0495355 222.60936,51.5811417 C222.051879,52.1287432 221.348089,52.406778 220.497519,52.4147756 C219.660592,52.406778 218.962447,52.1287432 218.401202,51.5820826 C217.828667,51.0509468 217.538401,50.3325727 217.530873,49.4274308 L217.530873,43.7279533 Z" id="Fill-20" fill="#FFFFFF" mask="url(#mask-6)"></path>
                        <polygon id="Fill-21" fill="#FFFFFF" mask="url(#mask-6)" points="234.229472 44.8852083 231.941684 44.8852083 231.941684 43.7279062 237.781825 43.7279062 237.781825 44.8852083 235.493566 44.8852083 235.493566 52.3436909 234.229472 52.3436909"></polygon>
                        <polygon id="Fill-22" fill="#FFFFFF" mask="url(#mask-6)" points="246.365619 52.3434557 247.629713 52.3434557 247.629713 43.7281415 246.365619 43.7281415"></polygon>
                        <path d="M257.968702,48.0354693 C257.968702,48.8841574 257.99881,49.4585744 258.060909,49.7587203 C258.11407,50.0593365 258.222744,50.3011468 258.387871,50.4874442 C258.521008,50.6652736 258.697426,50.8092307 258.915243,50.9193155 C259.128826,51.0501 259.385691,51.1154923 259.683485,51.1154923 C259.984571,51.1154923 260.246611,51.0501 260.468192,50.9193155 C260.678953,50.8092307 260.846432,50.6652736 260.973453,50.4874442 C261.137639,50.3011468 261.250547,50.0593365 261.311705,49.7587203 C261.368629,49.4585744 261.396856,48.8841574 261.396856,48.0354693 C261.396856,47.1872515 261.368629,46.60813 261.311705,46.300457 C261.250547,46.0087793 261.137639,45.7702621 260.973453,45.5839647 C260.846432,45.4061354 260.678953,45.2584147 260.468192,45.1403323 C260.246611,45.025543 259.984571,44.9648552 259.683485,44.9559167 C259.385691,44.9648552 259.128826,45.025543 258.915243,45.1403323 C258.697426,45.2584147 258.521008,45.4061354 258.387871,45.5839647 C258.222744,45.7702621 258.11407,46.0087793 258.060909,46.300457 C257.99881,46.60813 257.968702,47.1872515 257.968702,48.0354693 M256.705078,48.0354693 C256.705078,47.0329446 256.733776,46.3616153 256.79117,46.0224223 C256.851858,45.6827588 256.945477,45.4084876 257.071557,45.1991383 C257.27385,44.8034915 257.598459,44.4497146 258.043973,44.1396894 C258.482901,43.8259006 259.030032,43.6645369 259.685837,43.6565393 C260.349639,43.6645369 260.902415,43.8268415 261.345577,44.1415712 C261.783564,44.4530077 262.100176,44.8077255 262.295412,45.2047836 C262.436076,45.4136626 262.533459,45.6879337 262.586149,46.0261859 C262.636487,46.3649084 262.66095,47.0352968 262.66095,48.0354693 C262.66095,49.0210578 262.636487,49.6862713 262.586149,50.0329915 C262.533459,50.3797116 262.436076,50.6577464 262.294471,50.8666253 C262.100176,51.2636834 261.783564,51.6146376 261.344636,51.9180766 C260.902415,52.2328063 260.349639,52.398404 259.685837,52.4148697 C259.030032,52.398404 258.482901,52.2328063 258.043973,51.9180766 C257.598459,51.6146376 257.27385,51.2636834 257.071557,50.8666253 C257.01087,50.7363112 256.955357,50.6125834 256.90596,50.4940305 C256.859856,50.371714 256.821749,50.2178775 256.79117,50.0329915 C256.733776,49.6862713 256.705078,49.0210578 256.705078,48.0354693" id="Fill-23" fill="#FFFFFF" mask="url(#mask-6)"></path>
                        <polygon id="Fill-24" fill="#FFFFFF" mask="url(#mask-6)" points="271.873592 43.7279533 273.065237 43.7279533 276.843875 49.8527158 276.867397 49.8527158 276.867397 43.7279533 278.13055 43.7279533 278.13055 52.3432675 276.933731 52.3432675 273.159797 46.2189754 273.136745 46.2189754 273.136745 52.3432675 271.873592 52.3432675"></polygon>
                        <path d="M287.759445,50.2558897 C288.423717,50.8204273 289.215011,51.1069301 290.130503,51.1153982 C291.215826,51.099403 291.76625,50.6990517 291.781305,49.913874 C291.788361,49.2717125 291.425646,48.8850042 290.692688,48.7551606 C290.356788,48.7076454 289.988898,48.6544847 289.588076,48.5956787 C288.870173,48.4728918 288.324923,48.1995615 287.950917,47.7733356 C287.56515,47.335819 287.372737,46.8032719 287.372737,46.1766351 C287.372737,45.4239183 287.614076,44.8160995 288.098638,44.3550605 C288.567204,43.8973146 289.232417,43.6644428 290.094278,43.6569156 C291.132086,43.680438 292.033465,43.9768203 292.799354,44.5465328 L292.095094,45.6200951 C291.468927,45.1933988 290.779721,44.9722882 290.027475,44.9558226 C289.638414,44.9558226 289.313805,45.0564984 289.054588,45.2583206 C288.782669,45.4667291 288.643417,45.7781657 288.635419,46.1926304 C288.635419,46.4410269 288.729509,46.6654306 288.916747,46.8667823 C289.103044,47.0714272 289.40272,47.2135025 289.814832,47.2925378 C290.044411,47.331585 290.356788,47.3772184 290.754317,47.4284972 C291.536201,47.539523 292.114382,47.8288485 292.488388,48.2983556 C292.859101,48.7589242 293.043987,49.2961758 293.043987,49.9063469 C293.002588,51.5552671 292.025938,52.3907827 290.116389,52.4147756 C288.880522,52.4147756 287.818251,52.0228924 286.930045,51.2386556 L287.759445,50.2558897 Z" id="Fill-25" fill="#FFFFFF" mask="url(#mask-6)"></path>
                        <polygon id="Fill-26" fill="#FFFFFF" mask="url(#mask-6)" points="121.5393 36.8530144 126.114406 36.8530144 126.114406 0.574887454 121.5393 0.574887454"></polygon>
                        <polygon id="Fill-27" fill="#FFFFFF" mask="url(#mask-6)" points="211.60751 32.4996768 211.60751 0.575075633 206.548312 0.575075633 206.548312 32.4996768 206.548312 36.8532026 211.60751 36.8532026 235.783362 36.8532026 235.783362 32.4996768"></polygon>
                        <polygon id="Fill-28" fill="#FFFFFF" mask="url(#mask-6)" points="241.766049 36.8530144 246.454534 36.8530144 246.454534 0.574887454 241.766049 0.574887454"></polygon>
                        <polygon id="Fill-29" fill="#FFFFFF" mask="url(#mask-6)" points="165.565658 0.574887454 150.859454 0.574887454 145.800256 0.574887454 131.815248 0.574887454 131.815248 4.92841323 145.800256 4.92841323 145.800256 36.8530144 150.859454 36.8530144 150.859454 4.92841323 165.565658 4.92841323"></polygon>
                        <path d="M285.206935,3.4251437 C285.206935,1.8510247 283.93108,0.574699275 282.356961,0.574699275 L254.609468,0.574699275 L254.609468,4.92822505 L279.323983,4.92822505 L255.402173,31.6153287 C254.892207,32.1850412 254.609468,32.9227037 254.609468,33.6876521 L254.609468,34.0927078 C254.609468,35.6174298 255.845335,36.8532967 257.369586,36.8532967 L285.206935,36.8532967 L285.206935,32.4997709 L260.174397,32.4997709 L284.417994,5.79714251 C284.925607,5.23825029 285.206935,4.50999678 285.206935,3.7544573 L285.206935,3.4251437 Z" id="Fill-30" fill="#FFFFFF" mask="url(#mask-6)"></path>
                        <path d="M321.899574,4.35319647 L321.899574,-0.000329313599 L297.457448,-0.000329313599 L295.861218,-0.000329313599 L295.84193,-0.000329313599 C294.00483,-0.000329313599 292.515862,1.48910905 292.515862,3.32620848 L292.515862,3.34549685 L292.515862,4.35319647 L292.515862,31.6264783 L292.515862,36.2777976 L297.457448,36.2777976 L321.899574,36.2777976 L321.899574,31.6264783 L297.457448,31.6264783 L297.457448,19.7603684 L321.894399,19.7603684 L321.894399,14.7171659 L297.457448,14.7171659 L297.457448,4.35319647 L321.899574,4.35319647 Z" id="Fill-31" fill="#FFFFFF" mask="url(#mask-6)"></path>
                        <polygon id="Fill-32" fill="#FFFFFF" mask="url(#mask-6)" points="5.47225112 36.8534849 10.371967 36.8534849 10.371967 26.9463205 5.47225112 26.9463205"></polygon>
                        <path d="M13.7012334,15.501732 L10.3144783,15.501732 L10.3144783,12.371371 C10.3144783,11.3514398 9.48696025,10.5239217 8.46702899,10.5239217 L7.08155963,10.5239217 C6.06115792,10.5239217 5.23411034,11.3514398 5.23411034,12.371371 L5.23411034,15.501732 L1.8473552,15.501732 C0.826953492,15.501732 -9.40895997e-05,16.3287796 -9.40895997e-05,17.3491813 L-9.40895997e-05,18.7346506 C-9.40895997e-05,19.7550524 0.826953492,20.5820999 1.8473552,20.5820999 L5.23411034,20.5820999 L5.23411034,24.2252492 C5.23411034,25.2456509 6.06115792,26.0726985 7.08155963,26.0726985 L8.46702899,26.0726985 C9.48696025,26.0726985 10.3144783,25.2456509 10.3144783,24.2252492 L10.3144783,20.5820999 L13.7012334,20.5820999 C14.7211647,20.5820999 15.5486827,19.7550524 15.5486827,18.7346506 L15.5486827,17.3491813 C15.5486827,16.3287796 14.7211647,15.501732 13.7012334,15.501732" id="Fill-33" fill="#3AB44E" mask="url(#mask-6)"></path>
                        <polygon id="Fill-34" fill="#FFFFFF" mask="url(#mask-6)" points="26.4258168 0.884348148 5.47206294 0.884348148 5.47206294 9.51659847 10.3637812 9.51659847 10.3637812 5.20023809 18.078658 5.20023809 25.0831582 5.20447212"></polygon>
                        <path d="M37.8486706,36.8531556 L28.6490599,19.8892712 C35.0372733,18.2558757 35.2612066,11.0584918 35.2612066,11.0584918 C34.8688529,0.67099998 26.4257227,0.884250147 26.4257227,0.884250147 L25.0830641,5.20470734 C25.0830641,5.20470734 29.8129483,5.0386392 29.8129483,10.1227707 C29.8129483,15.2304246 25.5290488,15.5018731 25.2900612,15.5018731 L16.462575,15.5018731 L16.462575,20.5822411 L23.1109461,20.5822411 L32.3815944,36.8531556 L37.8486706,36.8531556 Z" id="Fill-35" fill="#FFFFFF" mask="url(#mask-6)"></path>
                        <path d="M110.216134,0.574887454 L95.6722338,29.1833007 L81.1288044,0.574887454 L79.3091115,0.574887454 L75.0557912,0.574887454 L47.0918917,0.574887454 L45.4956616,0.574887454 L45.4768437,0.574887454 C43.6392738,0.574887454 42.1503059,2.06432582 42.1503059,3.90142525 L42.1503059,3.92071362 L42.1503059,4.92841323 L42.1503059,32.2016951 L42.1503059,36.8530144 L47.0918917,36.8530144 L71.5340175,36.8530144 L71.5340175,32.2016951 L47.0918917,32.2016951 L47.0918917,20.3355852 L71.529313,20.3355852 L71.529313,15.2923826 L47.0918917,15.2923826 L47.0918917,4.92841323 L77.3106484,4.92841323 L93.1294624,35.4656633 C93.4757121,36.3054129 94.7642692,36.8530144 95.6722338,36.8530144 C96.5806689,36.8530144 97.869226,36.3054129 98.2159462,35.4656633 L116.289147,0.574887454 L110.216134,0.574887454 Z" id="Fill-36" fill="#FFFFFF" mask="url(#mask-6)"></path>
                        <path d="M171.897418,25.7078191 L180.696677,8.39956675 L189.495466,25.7078191 L171.897418,25.7078191 Z M195.240106,37.00798 L201.31312,37.00798 L183.239919,2.11673372 C182.893199,1.2774545 181.605112,0.729853025 180.696677,0.729853025 C179.788242,0.729853025 178.499685,1.2774545 178.153435,2.11673372 L160.079764,37.00798 L166.152777,37.00798 L169.679726,30.0707538 L191.713628,30.0707538 L195.240106,37.00798 Z" id="Fill-37" fill="#FFFFFF" mask="url(#mask-6)"></path>
                    </g>
                </g>
            </g>
        </g>
    </g>
</svg>