<?xml version="1.0" encoding="UTF-8"?>
<svg width="668px" height="109px" viewBox="0 0 668 109" version="1.1" xmlns="http://www.w3.org/2000/svg" xmlns:xlink="http://www.w3.org/1999/xlink">
    <!-- Generator: Sketch 62 (91390) - https://sketch.com -->
    <title>Group 14</title>
    <desc>Created with Sketch.</desc>
    <defs>
        <polygon id="path-1" points="0.703472288 0.374742898 12.9693432 0.374742898 12.9693432 18.5516286 0.703472288 18.5516286"></polygon>
        <polygon id="path-3" points="0.850842315 0.374742898 13.2065015 0.374742898 13.2065015 18.5516286 0.850842315 18.5516286"></polygon>
        <polygon id="path-5" points="0 108.784797 667.79215 108.784797 667.79215 0 0 0"></polygon>
    </defs>
    <g id="Page-1" stroke="none" stroke-width="1" fill="none" fill-rule="evenodd">
        <g id="REVITA-5_login_v03" transform="translate(-1106.000000, -55.000000)">
            <g id="Group-17" transform="translate(0.000000, 0.000000)">
                <g id="Group-14" transform="translate(1106.000000, 55.000000)">
                    <g id="Group-38" transform="translate(0.150943, 0.000000)">
                        <g id="Group-3" transform="translate(77.100875, 90.233169)">
                            <mask id="mask-2" fill="white">
                                <use xlink:href="#path-1"></use>
                            </mask>
                            <g id="Clip-2"></g>
                            <path d="M12.9693432,13.409703 C12.5896945,15.0666564 11.8645559,16.3389075 10.7958792,17.2284093 C9.69499586,18.1100999 8.39306463,18.5524097 6.88715766,18.5524097 C5.5266688,18.5182357 4.39065085,18.1745424 3.48105571,17.5213298 C2.55584521,16.8915508 1.88340847,16.1631553 1.46374547,15.3390724 C1.33687062,15.0686092 1.22170728,14.8118156 1.11923144,14.5657624 C1.02358731,14.311898 0.945510478,13.9926147 0.88207305,13.6088889 C0.763005875,12.889281 0.703472288,11.5086493 0.703472288,9.46308812 C0.703472288,7.38725852 0.763005875,5.99588637 0.88207305,5.29287729 C1.00797195,4.5908446 1.20218808,4.02160252 1.46374547,3.58808026 C1.88340847,2.76399738 2.55682117,2.02779065 3.48203167,1.38141285 C4.39260277,0.728200244 5.52764476,0.391341724 6.89008554,0.374742898 C8.56092983,0.391341724 9.92239464,0.901999712 10.975456,1.90671686 C12.0275413,2.91924522 12.6931463,4.17196836 12.9693432,5.66488626 L10.1868799,5.66488626 C9.97314459,4.94527835 9.58471233,4.3301454 9.02158315,3.82241662 C8.43503093,3.33909787 7.72062788,3.09011549 6.8813019,3.07156386 C6.26156702,3.09011549 5.7316205,3.21607128 5.28755849,3.45431325 C4.83471285,3.69939003 4.4706796,4.0059801 4.19253088,4.37505987 C3.85192068,4.76171487 3.62647382,5.25675043 3.51521433,5.86309577 C3.38833947,6.50068595 3.32490204,7.7026362 3.32490204,9.46308812 C3.32490204,11.2245164 3.38833947,12.4167027 3.51521433,13.0396468 C3.62647382,13.6635674 3.85192068,14.1654378 4.19253088,14.5520928 C4.4706796,14.9211725 4.83568881,15.2199514 5.28853446,15.4484294 C5.7316205,15.719869 6.26351894,15.8555888 6.88227786,15.8555888 C8.35695409,15.8555888 9.45978939,15.0383407 10.1898078,13.409703 L12.9693432,13.409703 Z" id="Fill-1" fill="#131415" mask="url(#mask-2)"></path>
                        </g>
                        <polygon id="Fill-4" fill="#131415" points="117.410969 100.823317 110.544112 100.823317 110.544112 108.637458 107.921706 108.637458 107.921706 90.7556413 110.544112 90.7556413 110.544112 98.4233223 117.410969 98.4233223 117.410969 90.7556413 120.032399 90.7556413 120.032399 108.637458 117.410969 108.637458"></polygon>
                        <path d="M147.879674,102.23744 L145.374383,94.4135342 L145.327537,94.4135342 L142.822247,102.23744 L147.879674,102.23744 Z M148.627259,104.637434 L142.061973,104.637434 L140.731739,108.637751 L137.95318,108.637751 L144.246173,90.7559342 L146.44306,90.7559342 L152.736053,108.637751 L149.969205,108.637751 L148.627259,104.637434 Z" id="Fill-6" fill="#131415"></path>
                        <path d="M173.255133,98.5949737 L177.23022,98.5949737 C178.214964,98.5764221 178.95279,98.2835016 179.444674,97.7084011 C179.928751,97.1752859 180.170789,96.5201205 180.170789,95.7399757 C180.155174,94.8065358 179.865313,94.130866 179.302184,93.7119897 C178.857146,93.3438864 178.214964,93.1583701 177.373686,93.1583701 L173.255133,93.1583701 L173.255133,98.5949737 Z M170.632727,90.7564224 L177.398085,90.7564224 C178.839579,90.7564224 180.017563,91.1479594 180.928134,91.9339626 C182.025114,92.8254172 182.597027,94.0957155 182.645825,95.7477869 C182.612642,98.1760974 181.499071,99.8281688 179.302184,100.702048 L183.309478,108.637263 L180.194212,108.637263 L176.611461,100.994969 L173.255133,100.994969 L173.255133,108.637263 L170.632727,108.637263 L170.632727,90.7564224 Z" id="Fill-8" fill="#131415"></path>
                        <g id="Group-12" transform="translate(200.071891, 90.233169)">
                            <mask id="mask-4" fill="white">
                                <use xlink:href="#path-3"></use>
                            </mask>
                            <g id="Clip-11"></g>
                            <path d="M7.05209498,8.56968074 L13.2065015,8.56968074 L13.2065015,12.2077528 C13.1733189,13.9965203 12.5809109,15.4943202 11.4263497,16.7011525 C10.2630048,17.9040791 8.79906417,18.5182357 7.03452769,18.5524097 C5.67403883,18.5182357 4.53802087,18.1745424 3.62842574,17.5213298 C2.70321524,16.8915508 2.02980253,16.1631553 1.6111155,15.3390724 C1.48424064,15.0686092 1.36907731,14.8118156 1.26660146,14.5657624 C1.1719333,14.311898 1.09288051,13.9926147 1.02944308,13.6088889 C0.910375902,12.889281 0.850842315,11.5086493 0.850842315,9.46308812 C0.850842315,7.38725852 0.910375902,5.99588637 1.02944308,5.29385369 C1.15534197,4.5908446 1.3495581,4.02160252 1.6111155,3.58808026 C2.02980253,2.76399738 2.70321524,2.02779065 3.62842574,1.38141285 C4.53802087,0.728200244 5.67403883,0.391341724 7.03452769,0.374742898 C8.70342005,0.391341724 10.0648849,0.901999712 11.1169702,1.90866966 C12.1700315,2.92119803 12.8336847,4.17782677 13.1108574,5.67367387 L10.3293702,5.67367387 C10.1166108,4.95016036 9.72720256,4.33307461 9.16504934,3.82436942 C8.57849711,3.34007427 7.86604599,3.09011549 7.02574405,3.07156386 C6.40796108,3.09011549 5.8770386,3.21607128 5.4329766,3.45431325 C4.98110692,3.69939003 4.61707367,4.0059801 4.34087686,4.37505987 C3.99929071,4.76171487 3.77286789,5.25675043 3.66258436,5.86309577 C3.5357095,6.50068595 3.47324803,7.7026362 3.47324803,9.46308812 C3.47324803,11.2245164 3.5357095,12.4167027 3.66258436,13.0396468 C3.77384385,13.6635674 4.00026667,14.1654378 4.34087686,14.5520928 C4.61804963,14.9211725 4.98305884,15.2199514 5.43492852,15.4484294 C5.87899052,15.719869 6.41088897,15.8555888 7.02867193,15.8555888 C8.05147847,15.8555888 8.89568426,15.4943202 9.56226524,14.7727595 C10.2278703,14.08342 10.5694564,13.176343 10.5850718,12.0525049 L10.5850718,11.1171123 L7.05209498,11.1171123 L7.05209498,8.56968074 Z" id="Fill-10" fill="#131415" mask="url(#mask-4)"></path>
                        </g>
                        <mask id="mask-6" fill="white">
                            <use xlink:href="#path-5"></use>
                        </mask>
                        <g id="Clip-14"></g>
                        <polygon id="Fill-13" fill="#131415" mask="url(#mask-6)" points="232.388869 108.637361 235.010299 108.637361 235.010299 90.75652 232.388869 90.75652"></polygon>
                        <polygon id="Fill-15" fill="#131415" mask="url(#mask-6)" points="254.427618 90.7561295 256.898749 90.7561295 264.73864 103.467901 264.786462 103.467901 264.786462 90.7561295 267.407892 90.7561295 267.407892 108.63697 264.925048 108.63697 257.096869 95.9261754 257.049047 95.9261754 257.049047 108.63697 254.427618 108.63697"></polygon>
                        <path d="M292.780716,98.8028496 L298.935123,98.8028496 L298.935123,102.440922 C298.90194,104.229689 298.309532,105.727489 297.154971,106.934321 C295.991626,108.137248 294.527685,108.751405 292.763149,108.785579 C291.40266,108.751405 290.266642,108.407711 289.357047,107.754499 C288.43086,107.12472 287.758424,106.396324 287.339737,105.572241 C287.212862,105.301778 287.097698,105.044984 286.995222,104.798931 C286.900554,104.545067 286.821502,104.225784 286.758064,103.842058 C286.638997,103.12245 286.579463,101.741818 286.579463,99.6962569 C286.579463,97.6204273 286.638997,96.2290552 286.758064,95.5270225 C286.883963,94.8240134 287.078179,94.2547713 287.339737,93.8212491 C287.758424,92.9971662 288.43086,92.2609595 289.357047,91.6145817 C290.266642,90.9613691 291.40266,90.6245105 292.763149,90.6079117 C294.432041,90.6245105 295.793506,91.1351685 296.845591,92.1418385 C297.898653,93.1543668 298.562306,94.4109956 298.839478,95.9068427 L296.057991,95.9068427 C295.845232,95.1833292 295.455824,94.5662434 294.89367,94.0575382 C294.307118,93.5732431 293.593691,93.3232843 292.754365,93.3047327 C292.136582,93.3232843 291.60566,93.4492401 291.161598,93.6874821 C290.709728,93.9325588 290.345695,94.2391489 290.069498,94.6082287 C289.727912,94.9948837 289.501489,95.4899193 289.391205,96.0962646 C289.264331,96.7338548 289.201869,97.935805 289.201869,99.6962569 C289.201869,101.457685 289.264331,102.649871 289.391205,103.272816 C289.502465,103.896736 289.728888,104.398607 290.069498,104.785262 C290.346671,105.154341 290.71168,105.45312 291.16355,105.681598 C291.607612,105.953038 292.138534,106.088758 292.757293,106.088758 C293.780099,106.088758 294.624305,105.727489 295.290886,105.005928 C295.956491,104.316589 296.298077,103.409512 296.313693,102.285674 L296.313693,101.350281 L292.780716,101.350281 L292.780716,98.8028496 Z" id="Fill-16" fill="#131415" mask="url(#mask-6)"></path>
                        <path d="M361.43153,104.304677 C362.809587,105.476359 364.4492,106.070987 366.351347,106.088562 C368.601912,106.055365 369.741834,105.224447 369.773064,103.594833 C369.789656,102.262045 369.03719,101.459443 367.516644,101.189956 C366.819808,101.091339 366.056607,100.981006 365.225089,100.858956 C363.735773,100.604115 362.602683,100.036826 361.826794,99.152206 C361.028459,98.2441526 360.628315,97.1388661 360.628315,95.8382993 C360.628315,94.2760569 361.129959,93.0145462 362.136174,92.0576727 C363.10823,91.107634 364.488238,90.6243153 366.276198,90.6086928 C368.426239,90.6575129 370.296179,91.2726459 371.886995,92.4550681 L370.425982,94.6832163 C369.126978,93.7976202 367.698172,93.3387115 366.136636,93.3045374 C365.32854,93.3045374 364.656104,93.5134873 364.116398,93.9323636 C363.554244,94.3649094 363.26536,95.0112872 363.248769,95.871497 C363.248769,96.387037 363.443961,96.8527805 363.830441,97.2706803 C364.218873,97.695415 364.841536,97.9902882 365.695502,98.1543237 C366.169818,98.235365 366.819808,98.330076 367.643519,98.4365037 C369.266541,98.6669345 370.466972,99.2674214 371.242861,100.24187 C372.010942,101.197767 372.394494,102.312818 372.394494,103.57921 C372.307634,107.001498 370.282516,108.735587 366.320116,108.785383 C363.757244,108.785383 361.554501,107.972041 359.711888,106.34438 L361.43153,104.304677 Z" id="Fill-17" fill="#131415" mask="url(#mask-6)"></path>
                        <path d="M393.220807,99.6962569 C393.220807,101.457685 393.283268,102.649871 393.410143,103.272816 C393.522379,103.896736 393.747825,104.398607 394.088436,104.785262 C394.366584,105.154341 394.730618,105.45312 395.182487,105.681598 C395.627525,105.953038 396.158448,106.088758 396.776231,106.088758 C397.402797,106.088758 397.946407,105.953038 398.406085,105.681598 C398.843315,105.45312 399.190757,105.154341 399.452314,104.785262 C399.792924,104.398607 400.029107,103.896736 400.15403,103.272816 C400.274073,102.649871 400.33263,101.457685 400.33263,99.6962569 C400.33263,97.935805 400.274073,96.7338548 400.15403,96.0952882 C400.029107,95.4899193 399.792924,94.9948837 399.452314,94.6082287 C399.190757,94.2391489 398.843315,93.9325588 398.406085,93.6874821 C397.946407,93.4492401 397.402797,93.3232843 396.776231,93.3047327 C396.158448,93.3232843 395.627525,93.4492401 395.182487,93.6874821 C394.730618,93.9325588 394.366584,94.2391489 394.088436,94.6082287 C393.747825,94.9948837 393.522379,95.4899193 393.410143,96.0952882 C393.283268,96.7338548 393.220807,97.935805 393.220807,99.6962569 M390.599377,99.6962569 C390.599377,97.6155453 390.658911,96.2222204 390.777978,95.5182349 C390.903877,94.813273 391.096141,94.2440309 391.35965,93.8095323 C391.777361,92.9883786 392.450774,92.2541247 393.37696,91.6106761 C394.286556,90.9594163 395.422574,90.6245105 396.783062,90.6079117 C398.160143,90.6245105 399.306896,90.9613691 400.224299,91.6145817 C401.13487,92.2609595 401.791691,92.9971662 402.194763,93.8212491 C402.487551,94.2547713 402.688599,94.8240134 402.799858,95.5260461 C402.902334,96.2290552 402.955036,97.6204273 402.955036,99.6962569 C402.955036,101.741818 402.902334,103.12245 402.799858,103.842058 C402.688599,104.561666 402.487551,105.138719 402.194763,105.572241 C401.789739,106.396324 401.132918,107.12472 400.224299,107.754499 C399.306896,108.407711 398.160143,108.751405 396.783062,108.785579 C395.422574,108.751405 394.286556,108.407711 393.37696,107.754499 C392.450774,107.12472 391.777361,106.396324 391.35965,105.572241 C391.231799,105.301778 391.117612,105.044984 391.01416,104.798931 C390.920468,104.545067 390.841415,104.225784 390.777978,103.842058 C390.658911,103.12245 390.599377,101.741818 390.599377,99.6962569" id="Fill-18" fill="#131415" mask="url(#mask-6)"></path>
                        <polygon id="Fill-19" fill="#131415" mask="url(#mask-6)" points="422.065025 90.7561295 424.687431 90.7561295 424.687431 106.088562 433.126561 106.088562 433.126561 108.63697 422.065025 108.63697"></polygon>
                        <path d="M451.275228,90.7561295 L453.896658,90.7561295 L453.896658,102.294266 C453.912273,103.513792 454.253859,104.443326 454.918489,105.080916 C455.568478,105.751704 456.405852,106.088562 457.429635,106.088562 C458.452441,106.088562 459.295671,105.751704 459.961276,105.080916 C460.61029,104.443326 460.943092,103.513792 460.959684,102.294266 L460.959684,90.7561295 L463.581113,90.7561295 L463.581113,102.578399 C463.549883,104.458948 462.959427,105.951866 461.810721,107.0552 C460.654208,108.191731 459.194171,108.768784 457.429635,108.785383 C455.693401,108.768784 454.245076,108.191731 453.080755,107.057153 C451.893011,105.954795 451.290844,104.46383 451.275228,102.585234 L451.275228,90.7561295 Z" id="Fill-20" fill="#131415" mask="url(#mask-6)"></path>
                        <polygon id="Fill-21" fill="#131415" mask="url(#mask-6)" points="485.917042 93.1579795 481.170946 93.1579795 481.170946 90.7560318 493.286519 90.7560318 493.286519 93.1579795 488.539447 93.1579795 488.539447 108.637849 485.917042 108.637849"></polygon>
                        <polygon id="Fill-22" fill="#131415" mask="url(#mask-6)" points="511.093893 108.637361 513.716299 108.637361 513.716299 90.75652 511.093893 90.75652"></polygon>
                        <path d="M535.164884,99.6962569 C535.164884,101.457685 535.227346,102.649871 535.356172,103.272816 C535.466456,103.896736 535.691903,104.398607 536.034465,104.785262 C536.310662,105.154341 536.676647,105.45312 537.128517,105.681598 C537.571603,105.953038 538.104477,106.088758 538.72226,106.088758 C539.346875,106.088758 539.890485,105.953038 540.350162,105.681598 C540.787392,105.45312 541.134834,105.154341 541.398343,104.785262 C541.738954,104.398607 541.973184,103.896736 542.100059,103.272816 C542.21815,102.649871 542.276708,101.457685 542.276708,99.6962569 C542.276708,97.935805 542.21815,96.7338548 542.100059,96.0952882 C541.973184,95.4899193 541.738954,94.9948837 541.398343,94.6082287 C541.134834,94.2391489 540.787392,93.9325588 540.350162,93.6874821 C539.890485,93.4492401 539.346875,93.3232843 538.72226,93.3047327 C538.104477,93.3232843 537.571603,93.4492401 537.128517,93.6874821 C536.676647,93.9325588 536.310662,94.2391489 536.034465,94.6082287 C535.691903,94.9948837 535.466456,95.4899193 535.356172,96.0952882 C535.227346,96.7338548 535.164884,97.935805 535.164884,99.6962569 M532.543454,99.6962569 C532.543454,97.6155453 532.602988,96.2222204 532.722055,95.5182349 C532.847954,94.813273 533.04217,94.2440309 533.303728,93.8095323 C533.723391,92.9883786 534.396803,92.2541247 535.321038,91.6106761 C536.231609,90.9594163 537.366651,90.6245105 538.72714,90.6079117 C540.10422,90.6245105 541.250973,90.9613691 542.170328,91.6145817 C543.078947,92.2609595 543.735769,92.9971662 544.140792,93.8212491 C544.432605,94.2547713 544.634628,94.8240134 544.743936,95.5260461 C544.848364,96.2290552 544.899114,97.6204273 544.899114,99.6962569 C544.899114,101.741818 544.848364,103.12245 544.743936,103.842058 C544.634628,104.561666 544.432605,105.138719 544.13884,105.572241 C543.735769,106.396324 543.078947,107.12472 542.168376,107.754499 C541.250973,108.407711 540.10422,108.751405 538.72714,108.785579 C537.366651,108.751405 536.231609,108.407711 535.321038,107.754499 C534.396803,107.12472 533.723391,106.396324 533.303728,105.572241 C533.177829,105.301778 533.062665,105.044984 532.960189,104.798931 C532.864545,104.545067 532.785493,104.225784 532.722055,103.842058 C532.602988,103.12245 532.543454,101.741818 532.543454,99.6962569" id="Fill-23" fill="#131415" mask="url(#mask-6)"></path>
                        <polygon id="Fill-24" fill="#131415" mask="url(#mask-6)" points="564.011054 90.7561295 566.483162 90.7561295 574.322076 103.467901 574.370874 103.467901 574.370874 90.7561295 576.991328 90.7561295 576.991328 108.63697 574.508485 108.63697 566.67933 95.9261754 566.631508 95.9261754 566.631508 108.63697 564.011054 108.63697"></polygon>
                        <path d="M596.966799,104.304677 C598.344855,105.476359 599.98642,106.070987 601.885639,106.088562 C604.13718,106.055365 605.279054,105.224447 605.310284,103.594833 C605.324924,102.262045 604.572458,101.459443 603.051912,101.189956 C602.355076,101.091339 601.591875,100.981006 600.760357,100.858956 C599.271041,100.604115 598.139903,100.036826 597.364014,99.152206 C596.563727,98.2441526 596.164559,97.1388661 596.164559,95.8382993 C596.164559,94.2760569 596.665227,93.0145462 597.670466,92.0576727 C598.642523,91.107634 600.022531,90.6243153 601.81049,90.6086928 C603.963459,90.6575129 605.833399,91.2726459 607.422263,92.4550681 L605.96125,94.6832163 C604.662247,93.7976202 603.232465,93.3387115 601.671904,93.3045374 C600.864785,93.3045374 600.191372,93.5134873 599.653618,93.9323636 C599.089512,94.3649094 598.800628,95.0112872 598.784037,95.871497 C598.784037,96.387037 598.979229,96.8527805 599.367661,97.2706803 C599.754142,97.695415 600.375828,97.9902882 601.23077,98.1543237 C601.707038,98.235365 602.355076,98.330076 603.179763,98.4365037 C604.801809,98.6669345 606.001264,99.2674214 606.777153,100.24187 C607.54621,101.197767 607.929762,102.312818 607.929762,103.57921 C607.843878,107.001498 605.817784,108.735587 601.85636,108.785383 C599.292512,108.785383 597.088794,107.972041 595.24618,106.34438 L596.966799,104.304677 Z" id="Fill-25" fill="#131415" mask="url(#mask-6)"></path>
                        <polygon id="Fill-26" fill="#131415" mask="url(#mask-6)" points="252.137429 76.4873884 261.628644 76.4873884 261.628644 1.19316264 252.137429 1.19316264"></polygon>
                        <polygon id="Fill-27" fill="#131415" mask="url(#mask-6)" points="438.987008 67.4521594 438.987008 1.1935532 428.491529 1.1935532 428.491529 67.4521594 428.491529 76.487779 438.987008 76.487779 489.140639 76.487779 489.140639 67.4521594"></polygon>
                        <polygon id="Fill-28" fill="#131415" mask="url(#mask-6)" points="501.551928 76.4873884 511.27835 76.4873884 511.27835 1.19316264 501.551928 1.19316264"></polygon>
                        <polygon id="Fill-29" fill="#131415" mask="url(#mask-6)" points="343.471613 1.19316264 312.96309 1.19316264 302.467611 1.19316264 273.455235 1.19316264 273.455235 10.2287822 302.467611 10.2287822 302.467611 76.4873884 312.96309 76.4873884 312.96309 10.2287822 343.471613 10.2287822"></polygon>
                        <path d="M591.67153,7.10878881 C591.67153,3.84174937 589.024725,1.19277208 585.759162,1.19277208 L528.196039,1.19277208 L528.196039,10.2283916 L579.467145,10.2283916 L529.840532,65.6167199 C528.782591,66.7991421 528.196039,68.3301397 528.196039,69.9177685 L528.196039,70.7584502 C528.196039,73.9229675 530.759887,76.4879743 533.921999,76.4879743 L591.67153,76.4879743 L591.67153,67.4523547 L539.740675,67.4523547 L590.034844,12.0318052 C591.087906,10.8718402 591.67153,9.36037068 591.67153,7.79226986 L591.67153,7.10878881 Z" id="Fill-30" fill="#131415" mask="url(#mask-6)"></path>
                        <path d="M667.791662,9.03493606 L667.791662,-0.000683481055 L617.085637,-0.000683481055 L613.774204,-0.000683481055 L613.734189,-0.000683481055 C609.923064,-0.000683481055 606.834149,3.09060369 606.834149,6.90345157 L606.834149,6.94348403 L606.834149,9.03493606 L606.834149,65.6398606 L606.834149,75.2935423 L617.085637,75.2935423 L667.791662,75.2935423 L667.791662,65.6398606 L617.085637,65.6398606 L617.085637,41.0120854 L667.780927,41.0120854 L667.780927,30.5450612 L617.085637,30.5450612 L617.085637,9.03493606 L667.791662,9.03493606 Z" id="Fill-31" fill="#131415" mask="url(#mask-6)"></path>
                        <polygon id="Fill-32" fill="#131415" mask="url(#mask-6)" points="11.3523719 76.4883648 21.5169999 76.4883648 21.5169999 55.9263255 11.3523719 55.9263255"></polygon>
                        <path d="M28.4236768,32.173406 L21.3977375,32.173406 L21.3977375,25.6764304 C21.3977375,23.559592 19.6810231,21.8421017 17.5651409,21.8421017 L14.6909374,21.8421017 C12.5740792,21.8421017 10.8583407,23.559592 10.8583407,25.6764304 L10.8583407,32.173406 L3.83240147,32.173406 C1.71554327,32.173406 -0.000195192089,33.8899199 -0.000195192089,36.0077348 L-0.000195192089,38.8832372 C-0.000195192089,41.0010521 1.71554327,42.7175659 3.83240147,42.7175659 L10.8583407,42.7175659 L10.8583407,50.2788192 C10.8583407,52.396634 12.5740792,54.1131479 14.6909374,54.1131479 L17.5651409,54.1131479 C19.6810231,54.1131479 21.3977375,52.396634 21.3977375,50.2788192 L21.3977375,42.7175659 L28.4236768,42.7175659 C30.539559,42.7175659 32.2562735,41.0010521 32.2562735,38.8832372 L32.2562735,36.0077348 C32.2562735,33.8899199 30.539559,32.173406 28.4236768,32.173406" id="Fill-33" fill="#3AB44E" mask="url(#mask-6)"></path>
                        <polygon id="Fill-34" fill="#131415" mask="url(#mask-6)" points="54.8212597 1.83543955 11.3519815 1.83543955 11.3519815 19.7514308 21.5000182 19.7514308 21.5000182 10.792947 37.5047935 10.792947 52.0358686 10.8017346"></polygon>
                        <path d="M78.51836,76.4876813 L59.4334536,41.2796194 C72.6860204,37.8895534 73.1505776,22.9515867 73.1505776,22.9515867 C72.3366266,1.39264147 54.8210645,1.83523615 54.8210645,1.83523615 L52.0356734,10.8022228 C52.0356734,10.8022228 61.8479797,10.4575531 61.8479797,21.0095241 C61.8479797,31.6103153 52.9608839,32.173699 52.465096,32.173699 L34.1521742,32.173699 L34.1521742,42.7178588 L47.9444472,42.7178588 L67.1767237,76.4876813 L78.51836,76.4876813 Z" id="Fill-35" fill="#131415" mask="url(#mask-6)"></path>
                        <path d="M228.647135,1.19316264 L198.475317,60.5691147 L168.304476,1.19316264 L164.529461,1.19316264 L155.705803,1.19316264 L97.6937381,1.19316264 L94.3823043,1.19316264 L94.3432659,1.19316264 C90.5311644,1.19316264 87.4422496,4.28444981 87.4422496,8.09729769 L87.4422496,8.13733016 L87.4422496,10.2287822 L87.4422496,66.8337067 L87.4422496,76.4873884 L97.6937381,76.4873884 L148.399763,76.4873884 L148.399763,66.8337067 L97.6937381,66.8337067 L97.6937381,42.2059315 L148.390003,42.2059315 L148.390003,31.7389074 L97.6937381,31.7389074 L97.6937381,10.2287822 L160.383581,10.2287822 L193.200251,73.6079804 C193.918558,75.3508571 196.591714,76.4873884 198.475317,76.4873884 C200.359897,76.4873884 203.033053,75.3508571 203.752336,73.6079804 L241.245808,1.19316264 L228.647135,1.19316264 Z" id="Fill-36" fill="#131415" mask="url(#mask-6)"></path>
                        <path d="M356.607065,53.3558509 L374.861429,17.4330631 L393.114817,53.3558509 L356.607065,53.3558509 Z M405.03227,76.8090151 L417.630944,76.8090151 L380.137471,4.39322094 C379.418189,2.65132065 376.746009,1.5147893 374.861429,1.5147893 C372.97685,1.5147893 370.303694,2.65132065 369.585387,4.39322094 L332.090939,76.8090151 L344.689612,76.8090151 L352.006388,62.4109985 L397.716471,62.4109985 L405.03227,76.8090151 Z" id="Fill-37" fill="#131415" mask="url(#mask-6)"></path>
                    </g>
                </g>
            </g>
        </g>
    </g>
</svg>