<?xml version="1.0" encoding="UTF-8"?>
<svg width="43px" height="37px" viewBox="0 0 43 37" version="1.1" xmlns="http://www.w3.org/2000/svg" xmlns:xlink="http://www.w3.org/1999/xlink">
    <!-- Generator: Sketch 62 (91390) - https://sketch.com -->
    <title>Group 33</title>
    <desc>Created with Sketch.</desc>
    <g id="Page-1" stroke="none" stroke-width="1" fill="none" fill-rule="evenodd">
        <g id="REVITA-5_dashboard_v03" transform="translate(-64.000000, -1300.000000)">
            <g id="Group-9" transform="translate(-44.000000, 140.000000)">
                <g id="Group-34" transform="translate(44.000000, 1046.000000)">
                    <g id="Group-29" transform="translate(66.000000, 0.000000)">
                        <g id="Group-18" transform="translate(0.000000, 116.000000)">
                            <g id="Group-33">
                                <g id="sidebar" stroke="#909090" stroke-linecap="round" stroke-linejoin="round" stroke-width="3.09090909">
                                    <rect id="Rectangle" x="0" y="0" width="27.8181818" height="27.8181818" rx="3.09090909"></rect>
                                    <line x1="9.27272727" y1="0" x2="9.27272727" y2="27.8181818" id="Path"></line>
                                </g>
                                <g id="settings-(3)" transform="translate(18.000000, 12.000000)" fill="#909090" fill-rule="nonzero" stroke="#121A14" stroke-width="1.71046402">
                                    <path d="M14.5389441,10.2627841 C14.5389441,11.4436131 14.0603186,12.5126531 13.2864859,13.2864859 C12.5126531,14.0603186 11.4436131,14.5389441 10.2627841,14.5389441 C9.0819551,14.5389441 8.01291509,14.0603186 7.23908233,13.2864859 C6.46524957,12.5126531 5.98662405,11.4436131 5.98662405,10.2627841 C5.98662405,9.0819551 6.46524957,8.01291509 7.23908233,7.23908233 C8.01291509,6.46524957 9.0819551,5.98662405 10.2627841,5.98662405 C11.4436131,5.98662405 12.5126531,6.46524957 13.2864859,7.23908233 C14.0603186,8.01291509 14.5389441,9.0819551 14.5389441,10.2627841 Z M11.1180161,10.2627841 C11.1180161,10.0266183 11.022291,9.81281029 10.8675244,9.65804374 C10.7127579,9.50327719 10.4989499,9.40755208 10.2627841,9.40755208 C10.0266183,9.40755208 9.81281029,9.50327719 9.65804374,9.65804374 C9.50327719,9.81281029 9.40755208,10.0266183 9.40755208,10.2627841 C9.40755208,10.4989499 9.50327719,10.7127579 9.65804374,10.8675244 C9.81281029,11.022291 10.0266183,11.1180161 10.2627841,11.1180161 C10.4989499,11.1180161 10.7127579,11.022291 10.8675244,10.8675244 C11.022291,10.7127579 11.1180161,10.4989499 11.1180161,10.2627841 Z" id="Oval"></path>
                                    <path d="M19.1371617,15.6464696 C19.1371617,16.5545348 18.7760558,17.4252839 18.1351947,18.0654306 C17.4935372,18.7078024 16.6228341,19.0687432 15.7148881,19.0687432 C15.1212818,19.0687432 14.5436081,18.9144469 14.0354456,18.6282981 C13.4120438,19.4157747 13.1539726,19.9345707 12.7813419,20.3283171 C12.1578568,20.9871331 11.2906259,21.3808002 10.3312027,21.3808002 C9.38653946,21.3808002 8.53130745,20.9978998 7.91224124,20.3788336 C7.50042468,19.967017 7.19311633,19.4506922 7.03348366,18.8730647 C5.91413164,18.9812646 5.40476716,19.1371617 4.8790986,19.1371617 C3.97103338,19.1371617 3.10028432,18.7760558 2.46013757,18.1351947 C1.81776582,17.4935372 1.45682503,16.6228341 1.45682503,15.7148881 C1.45682503,15.1212818 1.61112128,14.5436081 1.89727006,14.0354456 C1.10979347,13.4120438 0.590997507,13.1539726 0.197251088,12.7813419 C-0.46156487,12.1578568 -0.855232008,11.2906259 -0.855232008,10.3312027 C-0.855232008,9.38653946 -0.472331595,8.53130745 0.146734615,7.91224124 C0.558551181,7.50042468 1.07487596,7.19311633 1.65250344,7.03348366 C1.54430358,5.91413164 1.38840646,5.40476716 1.38840646,4.8790986 C1.38840646,3.97103338 1.7495124,3.10028432 2.39037346,2.46013757 C3.03203097,1.81776582 3.90273411,1.45682503 4.81068004,1.45682503 C5.41437291,1.45682503 6.00158701,1.6164094 6.51588911,1.91187147 C7.04159757,1.27281621 7.35632995,0.698300149 7.74644516,0.276676637 C8.43907891,-0.471898817 9.30785591,-0.855232008 10.2627841,-0.855232008 C11.2074473,-0.855232008 12.0626793,-0.472331595 12.6817455,0.146734615 C13.0928819,0.557871054 13.3998551,1.0731708 13.5599029,1.64947629 C14.6199674,1.54136207 15.1252161,1.38840646 15.6464696,1.38840646 C16.5545348,1.38840646 17.4252839,1.7495124 18.0654306,2.39037346 C18.7078024,3.03203097 19.0687432,3.90273411 19.0687432,4.81068004 C19.0687432,5.41437291 18.9091588,6.00158701 18.6136967,6.51588911 C19.252752,7.04159757 19.827268,7.35632995 20.2488915,7.74644516 C20.997467,8.43907891 21.3808002,9.30785591 21.3808002,10.2627841 C21.3808002,11.2074473 20.9978998,12.0626793 20.3788336,12.6817455 C19.9676971,13.0928819 19.4523974,13.3998551 18.8760919,13.5599029 C18.9842061,14.6199674 19.1371617,15.1252161 19.1371617,15.6464696 Z M15.0230219,12.1462223 C15.2674968,11.5756756 15.6771539,11.0989617 16.1965951,10.7677938 C16.6747592,10.462942 17.2475734,10.2807143 17.8751562,10.2640226 C17.8545258,10.2627217 17.8328579,10.2627775 17.8110624,10.2627773 C17.1484003,10.2601411 16.5230516,10.053865 15.9826879,9.62300946 C15.5238555,9.25716243 15.120531,8.72050313 14.83369,7.97778572 C14.8290156,7.96568211 14.8244008,7.95359823 14.8198454,7.94153413 C14.81577,7.92790288 14.8118078,7.91410244 14.8079348,7.90027048 C14.5379119,6.93591822 14.7181811,5.87720438 15.6066778,4.85477687 C15.6473204,4.81117494 15.6478151,4.81103715 15.6478151,4.81068004 C15.6478151,4.81032294 15.6473204,4.81018515 15.6471409,4.81000587 C15.6191549,4.8093345 15.6072283,4.84849327 15.5879218,4.86780903 C15.1256253,5.32009464 14.5576474,5.60474787 13.9591942,5.71450358 C13.3578616,5.82478737 12.7259827,5.75845477 12.1462223,5.50254629 C11.5756756,5.25807135 11.0989617,4.84841428 10.7677938,4.32897308 C10.462942,3.85080898 10.2807143,3.27799483 10.2627773,2.71450576 C10.2601411,3.37716784 10.053865,4.00251661 9.62300946,4.54288032 C9.25716243,5.0017127 8.72050313,5.40503716 7.97778572,5.69187814 C7.96568211,5.69655261 7.95359823,5.70116739 7.94153413,5.70572279 C7.92790288,5.70979816 7.91410244,5.71376042 7.90027048,5.71763343 C6.93591822,5.98765624 5.87720438,5.80738704 4.85477687,4.91889038 C4.81117494,4.87824775 4.81103715,4.87775306 4.81068004,4.87775306 C4.81032294,4.87775306 4.81018515,4.87824775 4.81000587,4.87842723 C4.8093345,4.90641333 4.84849327,4.91833989 4.86780903,4.93764636 C5.32774009,5.40775886 5.61528019,5.98683233 5.71483273,6.61573949 C5.80925503,7.21223715 5.73445083,7.85629391 5.45825449,8.48664148 C5.20427382,9.04907807 4.80349491,9.50783129 4.2941399,9.82963033 C3.82614096,10.1253015 3.26465884,10.3061964 2.64170737,10.3293209 C2.66486299,10.3312821 2.68960107,10.3312092 2.71450576,10.3312095 C3.33906023,10.3336936 3.92986148,10.520278 4.42607185,10.8474591 C4.92472121,11.1762483 5.32767395,11.6468954 5.57100189,12.2147261 C5.8282566,12.7974978 5.89429207,13.438783 5.77065016,14.0570999 C5.65194401,14.6507337 5.35769983,15.22514 4.8842139,15.7083648 L4.87842723,15.7155623 C4.90641333,15.7162337 4.91833989,15.6770749 4.93764636,15.6577592 C5.40775886,15.1978281 5.98683233,14.910288 6.61573949,14.8107354 C7.21223715,14.7163132 7.85629391,14.7911174 8.48664148,15.0673137 C9.04907807,15.3212944 9.50783129,15.7220733 9.82963033,16.2314283 C10.1253015,16.6994272 10.3061964,17.2609093 10.3293209,17.8838608 C10.3312821,17.8607052 10.3312092,17.8359671 10.3312095,17.8110624 C10.3336936,17.186508 10.520278,16.5957067 10.8474591,16.0994963 C11.1762483,15.600847 11.6468954,15.1978942 12.2147261,14.9545663 C12.7974978,14.6973116 13.438783,14.6312761 14.0570999,14.754918 C14.6507337,14.8736242 15.22514,15.1678684 15.7083648,15.6413543 L15.7155623,15.6471409 C15.7162337,15.6191549 15.6770749,15.6072283 15.6577592,15.5879218 C15.2054735,15.1256253 14.9208203,14.5576474 14.8110646,13.9591942 C14.7007808,13.3578616 14.7671134,12.7259827 15.0230219,12.1462223 Z" id="Path"></path>
                                </g>
                            </g>
                        </g>
                    </g>
                </g>
            </g>
        </g>
    </g>
</svg>