<?xml version="1.0" encoding="UTF-8"?>
<svg width="43px" height="37px" viewBox="0 0 43 37" version="1.1" xmlns="http://www.w3.org/2000/svg" xmlns:xlink="http://www.w3.org/1999/xlink">
    <!-- Generator: Sketch 62 (91390) - https://sketch.com -->
    <title>Group 31</title>
    <desc>Created with Sketch.</desc>
    <g id="Page-1" stroke="none" stroke-width="1" fill="none" fill-rule="evenodd">
        <g id="REVITA-5_dashboard_v03" transform="translate(-64.000000, -582.000000)">
            <g id="Group-30" transform="translate(66.000000, 582.000000)">
                <g id="Group-6">
                    <g id="Group-31" transform="translate(0.000000, 1.000000)">
                        <g id="server-(2)" transform="translate(0.000000, 0.666667)" stroke="#909090" stroke-linecap="round" stroke-linejoin="round" stroke-width="2.83333333">
                            <rect id="Rectangle" x="0" y="0" width="28.3333333" height="11.3333333" rx="2.83333333"></rect>
                            <rect id="Rectangle" x="0" y="17" width="28.3333333" height="11.3333333" rx="2.83333333"></rect>
                            <line x1="5.66666667" y1="5.66666667" x2="5.68083333" y2="5.66666667" id="Path"></line>
                            <line x1="5.66666667" y1="22.6666667" x2="5.68083333" y2="22.6666667" id="Path"></line>
                        </g>
                        <g id="settings-(3)" transform="translate(18.000000, 13.000000)" fill="#909090" fill-rule="nonzero" stroke="#121A14" stroke-width="1.77083333">
                            <path d="M15.0520833,10.625 C15.0520833,11.8475053 14.5565652,12.9542761 13.7554206,13.7554206 C12.9542761,14.5565652 11.8475053,15.0520833 10.625,15.0520833 C9.40249469,15.0520833 8.29572386,14.5565652 7.49457935,13.7554206 C6.69343485,12.9542761 6.19791667,11.8475053 6.19791667,10.625 C6.19791667,9.40249469 6.69343485,8.29572386 7.49457935,7.49457935 C8.29572386,6.69343485 9.40249469,6.19791667 10.625,6.19791667 C11.8475053,6.19791667 12.9542761,6.69343485 13.7554206,7.49457935 C14.5565652,8.29572386 15.0520833,9.40249469 15.0520833,10.625 Z M11.5104167,10.625 C11.5104167,10.3804989 11.411313,10.1591448 11.2510841,9.99891587 C11.0908552,9.83868697 10.8695011,9.73958333 10.625,9.73958333 C10.3804989,9.73958333 10.1591448,9.83868697 9.99891587,9.99891587 C9.83868697,10.1591448 9.73958333,10.3804989 9.73958333,10.625 C9.73958333,10.8695011 9.83868697,11.0908552 9.99891587,11.2510841 C10.1591448,11.411313 10.3804989,11.5104167 10.625,11.5104167 C10.8695011,11.5104167 11.0908552,11.411313 11.2510841,11.2510841 C11.411313,11.0908552 11.5104167,10.8695011 11.5104167,10.625 Z" id="Oval"></path>
                            <path d="M19.812591,16.1986979 C19.812591,17.1388125 19.4387401,18.0402939 18.7752604,18.703034 C18.1109562,19.3680777 17.2095223,19.7417576 16.2695312,19.7417576 C15.6549741,19.7417576 15.0569119,19.5820156 14.5308143,19.2857675 C13.88541,20.1010373 13.6182304,20.6381438 13.2324481,21.0457871 C12.5869576,21.7278554 11.6891186,22.1354167 10.6958333,22.1354167 C9.71782909,22.1354167 8.83241242,21.7390021 8.19149682,21.0980865 C7.76514555,20.6717352 7.44699102,20.1371872 7.28172425,19.5391729 C6.1228657,19.6511916 5.59552365,19.812591 5.05130208,19.812591 C4.1111875,19.812591 3.20970612,19.4387401 2.54696595,18.7752604 C1.88192226,18.1109562 1.50824238,17.2095223 1.50824238,16.2695312 C1.50824238,15.6549741 1.66798439,15.0569119 1.96423254,14.5308143 C1.14896265,13.88541 0.611856243,13.6182304 0.204212891,13.2324481 C-0.477855395,12.5869576 -0.885416667,11.6891186 -0.885416667,10.6958333 C-0.885416667,9.71782909 -0.489002122,8.83241242 0.151913483,8.19149682 C0.578264752,7.76514555 1.11281276,7.44699102 1.71082709,7.28172425 C1.59880841,6.1228657 1.43740905,5.59552365 1.43740905,5.05130208 C1.43740905,4.1111875 1.8112599,3.20970612 2.47473958,2.54696595 C3.13904383,1.88192226 4.04047766,1.50824238 4.98046875,1.50824238 C5.60546842,1.50824238 6.21340773,1.67345914 6.74586167,1.97934929 C7.29012455,1.31773914 7.61596513,0.722946036 8.01984911,0.286441695 C8.73692875,-0.488554069 9.63636847,-0.885416667 10.625,-0.885416667 C11.6030042,-0.885416667 12.4884209,-0.489002122 13.1293365,0.151913483 C13.5549837,0.577560621 13.8727911,1.11104741 14.0384877,1.7076931 C15.1359663,1.59576308 15.6590473,1.43740905 16.1986979,1.43740905 C17.1388125,1.43740905 18.0402939,1.8112599 18.703034,2.47473958 C19.3680777,3.13904383 19.7417576,4.04047766 19.7417576,4.98046875 C19.7417576,5.60546842 19.5765409,6.21340773 19.2706507,6.74586167 C19.9322609,7.29012455 20.527054,7.61596513 20.9635583,8.01984911 C21.7385541,8.73692875 22.1354167,9.63636847 22.1354167,10.625 C22.1354167,11.6030042 21.7390021,12.4884209 21.0980865,13.1293365 C20.6724394,13.5549837 20.1389526,13.8727911 19.5423069,14.0384877 C19.6542369,15.1359663 19.812591,15.6590473 19.812591,16.1986979 Z M15.5532462,12.5749125 C15.8063497,11.9842288 16.2304652,11.4906897 16.7682396,11.1478336 C17.2632801,10.8322223 17.8563112,10.643563 18.506044,10.6262822 C18.4846855,10.6249354 18.4622529,10.6249932 18.4396882,10.624993 C17.753638,10.6222638 17.1062181,10.4087073 16.5467827,9.96264508 C16.0717563,9.58388581 15.6541968,9.02828559 15.357232,8.25935463 C15.3523926,8.24682383 15.3476149,8.23431346 15.3428988,8.22182357 C15.3386795,8.20771122 15.3345774,8.1934237 15.3305677,8.17910356 C15.0510147,7.18071533 15.2376464,6.08463513 16.1575017,5.02612194 C16.1995788,4.98098111 16.200091,4.98083846 16.200091,4.98046875 C16.200091,4.98009904 16.1995788,4.97995639 16.199393,4.97977078 C16.1704191,4.97907571 16.1580716,5.01961656 16.1380838,5.03961405 C15.6594709,5.50786269 15.0714467,5.80256251 14.4518717,5.91619194 C13.8293155,6.0303681 13.175135,5.96169435 12.5749125,5.6967538 C11.9842288,5.44365034 11.4906897,5.01953479 11.1478336,4.48176036 C10.8322223,3.98671989 10.643563,3.39368876 10.624993,2.81031185 C10.6222638,3.496362 10.4087073,4.1437819 9.96264508,4.70321727 C9.58388581,5.17824374 9.02828559,5.59580318 8.25935463,5.89276795 C8.24682383,5.89760741 8.23431346,5.90238506 8.22182357,5.90710124 C8.20771122,5.91132045 8.1934237,5.91542255 8.17910356,5.91943226 C7.18071533,6.19898528 6.08463513,6.01235364 5.02612194,5.09249828 L4.98046875,5.04990905 L4.97977078,5.05060702 C4.97907571,5.07958086 5.01961656,5.09192835 5.03961405,5.11191623 C5.51577798,5.59862094 5.81346655,6.1981323 5.91653271,6.84923618 C6.01428756,7.46678669 5.93684321,8.13357487 5.65089877,8.78617 C5.38795407,9.3684573 4.97303003,9.84340181 4.44569777,10.1765585 C3.96118123,10.4826651 3.37988209,10.6699445 2.7349441,10.6938852 C2.75891697,10.6959156 2.78452817,10.6958401 2.81031185,10.6958404 C3.45690941,10.6984122 4.06856247,10.8915819 4.58228615,11.2303106 C5.0985349,11.5707041 5.5157095,12.0579623 5.76762548,12.6458341 C6.03395977,13.2491742 6.10232591,13.913093 5.97432017,14.5532328 C5.85142439,15.1678184 5.54679512,15.7624978 5.05659792,16.2627777 C5.04990905,16.269901 5.0504212,16.2700436 5.05060702,16.2702292 C5.07958086,16.2709243 5.09192835,16.2303834 5.11191623,16.2103859 C5.59862094,15.734222 6.1981323,15.4365334 6.84923618,15.3334673 C7.46678669,15.2357124 8.13357487,15.3131568 8.78617,15.5991012 C9.3684573,15.8620459 9.84340181,16.27697 10.1765585,16.8043022 C10.4826651,17.2888188 10.6699445,17.8701179 10.6938852,18.5150559 C10.6959156,18.491083 10.6958401,18.4654718 10.6958404,18.4396882 C10.6984122,17.7930906 10.8915819,17.1814375 11.2303106,16.6677138 C11.5707041,16.1514651 12.0579623,15.7342905 12.6458341,15.4823745 C13.2491742,15.2160402 13.913093,15.1476741 14.5532328,15.2756798 C15.1678184,15.3985756 15.7624978,15.7032049 16.2627777,16.1934021 C16.269901,16.200091 16.2700436,16.1995788 16.2702292,16.199393 C16.2709243,16.1704191 16.2303834,16.1580716 16.2103859,16.1380838 C15.7421373,15.6594709 15.4474375,15.0714467 15.3338081,14.4518717 C15.2196319,13.8293155 15.2883056,13.175135 15.5532462,12.5749125 Z" id="Path"></path>
                        </g>
                    </g>
                </g>
            </g>
        </g>
    </g>
</svg>