<?xml version="1.0" encoding="UTF-8"?>
<svg width="43px" height="39px" viewBox="0 0 43 39" version="1.1" xmlns="http://www.w3.org/2000/svg" xmlns:xlink="http://www.w3.org/1999/xlink">
    <!-- Generator: Sketch 62 (91390) - https://sketch.com -->
    <title>Group 32</title>
    <desc>Created with Sketch.</desc>
    <g id="Page-1" stroke="none" stroke-width="1" fill="none" fill-rule="evenodd">
        <g id="REVITA-5_dashboard_v03" transform="translate(-64.000000, -1418.000000)">
            <g id="Group-9" transform="translate(-44.000000, 140.000000)">
                <g id="Group-34" transform="translate(44.000000, 1046.000000)">
                    <g id="Group-29" transform="translate(66.000000, 0.000000)">
                        <g id="Group-19" transform="translate(0.000000, 234.000000)">
                            <g id="Group-32">
                                <g id="zap-(2)" stroke="#909090" stroke-linecap="round" stroke-linejoin="round" stroke-width="3.23809524">
                                    <polygon id="Path" points="16.1904762 0 0 19.4285714 14.5714286 19.4285714 12.952381 32.3809524 29.1428571 12.952381 14.5714286 12.952381"></polygon>
                                </g>
                                <g id="settings-(3)" transform="translate(18.000000, 14.000000)" fill="#909090" fill-rule="nonzero" stroke="#121A14" stroke-width="1.72023816">
                                    <path d="M14.6220244,10.321429 C14.6220244,11.5090056 14.1406639,12.5841545 13.3624092,13.3624092 C12.5841545,14.1406639 11.5090056,14.6220244 10.321429,14.6220244 C9.13385235,14.6220244 8.0587035,14.1406639 7.2804488,13.3624092 C6.50219411,12.5841545 6.02083357,11.5090056 6.02083357,10.321429 C6.02083357,9.13385235 6.50219411,8.0587035 7.2804488,7.2804488 C8.0587035,6.50219411 9.13385235,6.02083357 10.321429,6.02083357 C11.5090056,6.02083357 12.5841545,6.50219411 13.3624092,7.2804488 C14.1406639,8.0587035 14.6220244,9.13385235 14.6220244,10.321429 Z M11.1815481,10.321429 C11.1815481,10.0839137 11.085276,9.86888389 10.929625,9.71323295 C10.7739741,9.55758201 10.5589443,9.4613099 10.321429,9.4613099 C10.0839137,9.4613099 9.86888389,9.55758201 9.71323295,9.71323295 C9.55758201,9.86888389 9.4613099,10.0839137 9.4613099,10.321429 C9.4613099,10.5589443 9.55758201,10.7739741 9.71323295,10.929625 C9.86888389,11.085276 10.0839137,11.1815481 10.321429,11.1815481 C10.5589443,11.1815481 10.7739741,11.085276 10.929625,10.929625 C11.085276,10.7739741 11.1815481,10.5589443 11.1815481,10.321429 Z" id="Oval"></path>
                                    <path d="M19.2465177,15.7358786 C19.2465177,16.6491328 18.8833483,17.5248576 18.2388251,18.1686624 C17.593501,18.8147048 16.7178224,19.1777082 15.8046881,19.1777082 C15.2076897,19.1777082 14.626715,19.0225302 14.1156487,18.7347463 C13.4886846,19.5267228 13.2291387,20.0484833 12.8543787,20.4444797 C12.2273307,21.1070604 11.3551442,21.502977 10.3902385,21.502977 C9.4401772,21.502977 8.58005812,21.1178886 7.95745437,20.4952849 C7.54328455,20.081115 7.23422013,19.5618398 7.07367527,18.9809116 C5.94792692,19.0897297 5.43565176,19.2465177 4.90697936,19.2465177 C3.99372516,19.2465177 3.11800035,18.8833483 2.4741956,18.2388251 C1.82815313,17.593501 1.4651498,16.7178224 1.4651498,15.8046881 C1.4651498,15.2076897 1.62032776,14.626715 1.90811168,14.1156487 C1.11613519,13.4886846 0.59437466,13.2291387 0.198378245,12.8543787 C-0.464202402,12.2273307 -0.860119082,11.3551442 -0.860119082,10.3902385 C-0.860119082,9.4401772 -0.475030652,8.58005812 0.147573104,7.95745437 C0.561742924,7.54328455 1.08101815,7.23422013 1.66194639,7.07367527 C1.55312823,5.94792692 1.39634027,5.43565176 1.39634027,4.90697936 C1.39634027,3.99372516 1.75950969,3.11800035 2.40403283,2.4741956 C3.04935698,1.82815313 3.9250356,1.4651498 4.83816984,1.4651498 C5.4453124,1.4651498 6.03588204,1.62564609 6.55312302,1.92279653 C7.08183556,1.2800895 7.39836642,0.702290463 7.79071088,0.278257658 C8.48730255,-0.4745954 9.36104403,-0.860119082 10.321429,-0.860119082 C11.2714903,-0.860119082 12.1316094,-0.475030652 12.7542131,0.147573104 C13.1676989,0.561058911 13.4764262,1.07930324 13.6373886,1.65890193 C14.7035107,1.55016991 15.2116465,1.39634027 15.7358786,1.39634027 C16.6491328,1.39634027 17.5248576,1.75950969 18.1686624,2.40403283 C18.8147048,3.04935698 19.1777082,3.9250356 19.1777082,4.83816984 C19.1777082,5.4453124 19.0172119,6.03588204 18.7200614,6.55312302 C19.3627685,7.08183556 19.9405675,7.39836642 20.3646003,7.79071088 C21.1174534,8.48730255 21.502977,9.36104403 21.502977,10.321429 C21.502977,11.2714903 21.1178886,12.1316094 20.4952849,12.7542131 C20.0817991,13.1676989 19.5635547,13.4764262 18.983956,13.6373886 C19.0926881,14.7035107 19.2465177,15.2116465 19.2465177,15.7358786 Z M15.1088683,12.2156298 C15.3547403,11.6418227 15.7667383,11.1623847 16.2891477,10.8293245 C16.7700442,10.5227306 17.3461316,10.3394616 17.9773006,10.3226746 C17.9565523,10.3213662 17.9347607,10.3214224 17.9128406,10.3214221 C17.2463919,10.3187709 16.6174697,10.111316 16.0740181,9.67799847 C15.6125638,9.31006087 15.2069347,8.77033493 14.9184546,8.02337339 C14.9137534,8.01120061 14.9091122,7.99904768 14.9045308,7.98691464 C14.9004322,7.9732055 14.8964473,7.9593262 14.8925521,7.9454152 C14.6209863,6.97555231 14.8022856,5.91078864 15.6958594,4.88251865 C15.7367343,4.83866756 15.7372318,4.83852898 15.7372318,4.83816984 C15.7372318,4.83781069 15.7367343,4.83767211 15.7365538,4.83749181 C15.7084078,4.8368166 15.6964131,4.87619914 15.6769963,4.89562527 C15.2120581,5.3504954 14.6408345,5.63677523 14.0389616,5.74715811 C13.4341927,5.8580721 12.7987031,5.79136046 12.2156298,5.53398963 C11.6418227,5.28811768 11.1623847,4.8761197 10.8293245,4.35371024 C10.5227306,3.87281376 10.3394616,3.29672636 10.3214221,2.73001733 C10.3187709,3.39646608 10.111316,4.02538829 9.67799847,4.56883982 C9.31006087,5.03029412 8.77033493,5.4359233 8.02337339,5.72440338 C8.01120061,5.72910456 7.99904768,5.73374572 7.98691464,5.73832715 C7.9732055,5.74242581 7.9593262,5.74641071 7.9454152,5.75030585 C6.97555231,6.02187165 5.91078864,5.84057234 4.88251865,4.94699852 L4.83816984,4.90562613 L4.83749181,4.90630416 C4.8368166,4.93445017 4.87619914,4.94644488 4.89562527,4.96586168 C5.35818454,5.43866056 5.64736773,6.02104304 5.74748915,6.65354398 C5.842451,7.25345022 5.76721935,7.90118733 5.48944474,8.53513691 C5.23401273,9.10078745 4.83094365,9.56216214 4.31867801,9.88580004 C3.84800478,10.1831608 3.28331416,10.3650893 2.65680295,10.388346 C2.68009088,10.3903184 2.70497033,10.3902451 2.73001733,10.3902453 C3.3581407,10.3927437 3.95231798,10.5803943 4.45136387,10.909445 C4.95286267,11.240113 5.35811801,11.7134495 5.60283641,12.284525 C5.86156115,12.8706269 5.92797398,13.5155766 5.80362554,14.1374267 C5.68424106,14.7344527 5.38831547,15.3121414 4.91212389,15.7981275 L4.90630416,15.8053662 C4.93445017,15.8060414 4.94644488,15.7666588 4.96586168,15.7472327 C5.43866056,15.2846734 6.02104304,14.9954902 6.65354398,14.8953688 C7.25345022,14.800407 7.90118733,14.8756386 8.53513691,15.1534132 C9.10078745,15.4088452 9.56216214,15.8119143 9.88580004,16.32418 C10.1831608,16.7948532 10.3650893,17.3595438 10.388346,17.986055 C10.3903184,17.9627671 10.3902451,17.9378876 10.3902453,17.9128406 C10.3927437,17.2847173 10.5803943,16.69054 10.909445,16.1914941 C11.240113,15.6899953 11.7134495,15.2847399 12.284525,15.0400216 C12.8706269,14.7812968 13.5155766,14.714884 14.1374267,14.8392324 C14.7344527,14.9586169 15.3121414,15.2545425 15.7981275,15.7307341 C15.8050473,15.7372318 15.8051858,15.7367343 15.8053662,15.7365538 C15.8060414,15.7084078 15.7666588,15.6964131 15.7472327,15.6769963 C15.2923626,15.2120581 15.0060827,14.6408345 14.8956999,14.0389616 C14.7847859,13.4341927 14.8514975,12.7987031 15.1088683,12.2156298 Z" id="Path"></path>
                                </g>
                            </g>
                        </g>
                    </g>
                </g>
            </g>
        </g>
    </g>
</svg>