<?xml version="1.0" encoding="UTF-8"?>
<svg width="329px" height="374px" viewBox="0 0 329 374" version="1.1" xmlns="http://www.w3.org/2000/svg" xmlns:xlink="http://www.w3.org/1999/xlink">
    <!-- Generator: Sketch 62 (91390) - https://sketch.com -->
    <title>Fill 33 Copy</title>
    <desc>Created with Sketch.</desc>
    <g id="Page-1" stroke="none" stroke-width="1" fill="none" fill-rule="evenodd" opacity="0.300000012">
        <g id="REVITA-5_dashboard_v03" transform="translate(0.000000, -2515.000000)" stroke="#3AB44E" stroke-width="2">
            <g id="Group-9" transform="translate(-44.000000, 140.000000)">
                <path d="M327.800309,2495.09267 L246.773169,2495.09267 L246.773169,2420.19969 C246.773169,2395.79813 226.975039,2376 202.573477,2376 L169.426523,2376 C145.013706,2376 125.226831,2395.79813 125.226831,2420.19969 L125.226831,2495.09267 L44.1996914,2495.09267 C19.7868748,2495.09267 0,2514.87955 0,2539.29237 L0,2572.43932 C0,2596.85214 19.7868748,2616.63901 44.1996914,2616.63901 L125.226831,2616.63901 L125.226831,2703.80031 C125.226831,2728.21313 145.013706,2748 169.426523,2748 L202.573477,2748 C226.975039,2748 246.773169,2728.21313 246.773169,2703.80031 L246.773169,2616.63901 L327.800309,2616.63901 C352.20187,2616.63901 372,2596.85214 372,2572.43932 L372,2539.29237 C372,2514.87955 352.20187,2495.09267 327.800309,2495.09267" id="Fill-33-Copy"></path>
            </g>
        </g>
    </g>
</svg>