<?xml version="1.0" encoding="UTF-8"?>
<svg width="66px" height="67px" viewBox="0 0 66 67" version="1.1" xmlns="http://www.w3.org/2000/svg" xmlns:xlink="http://www.w3.org/1999/xlink">
    <!-- Generator: Sketch 62 (91390) - https://sketch.com -->
    <title>Group 8</title>
    <desc>Created with Sketch.</desc>
    <defs>
        <polygon id="path-1" points="0 0.521172414 65.4784483 0.521172414 65.4784483 65.9999241 0 65.9999241"></polygon>
    </defs>
    <g id="Page-1" stroke="none" stroke-width="1" fill="none" fill-rule="evenodd">
        <g id="REVITA-5_reports_v02" transform="translate(-2694.000000, -356.000000)">
            <g id="Group-46" transform="translate(2282.000000, 314.000000)">
                <g id="Group-8" transform="translate(412.000000, 42.000000)">
                    <g id="Group-3" transform="translate(0.000000, 0.237448)">
                        <mask id="mask-2" fill="white">
                            <use xlink:href="#path-1"></use>
                        </mask>
                        <g id="Clip-2"></g>
                        <path d="M32.747,3.19371724 C16.1635517,3.19371724 2.67224138,16.684269 2.67224138,33.2684759 C2.67224138,49.8428207 16.1635517,63.3273034 32.747,63.3273034 C49.3221034,63.3273034 62.8058276,49.8428207 62.8058276,33.2684759 C62.8058276,16.684269 49.3221034,3.19371724 32.747,3.19371724 M32.747,65.9999241 C14.6903103,65.9999241 -0.000379310345,51.3168207 -0.000379310345,33.2684759 C-0.000379310345,15.2117862 14.6903103,0.521096552 32.747,0.521096552 C50.7945862,0.521096552 65.4784483,15.2117862 65.4784483,33.2684759 C65.4784483,41.9850276 62.0661724,50.1963379 55.8705172,56.3919931 C49.6748621,62.5868897 41.4635517,65.9999241 32.747,65.9999241" id="Fill-1" fill="#C4C4C4" mask="url(#mask-2)"></path>
                    </g>
                    <path d="M32.747,12.9191586 C21.395,12.9191586 12.1603103,22.1546069 12.1603103,33.5058483 C12.1603103,44.8487448 21.395,54.0766069 32.747,54.0766069 C44.0898966,54.0766069 53.3185172,44.8487448 53.3185172,33.5058483 C53.3185172,22.1546069 44.0898966,12.9191586 32.747,12.9191586 M32.747,56.7492276 C19.9217586,56.7492276 9.48768966,46.3227448 9.48768966,33.5058483 C9.48768966,20.6806069 19.9217586,10.2465379 32.747,10.2465379 C45.5638966,10.2465379 55.9911379,20.6806069 55.9911379,33.5058483 C55.9911379,46.3227448 45.5638966,56.7492276 32.747,56.7492276" id="Fill-4" fill="#C4C4C4"></path>
                    <path d="M26.942869,36.2237586 L30.0061793,38.2659655 C30.4439034,38.5572759 30.6692138,39.0784483 30.582731,39.5973448 L29.9993517,43.0968621 L37.7873517,34.4425172 L34.0124552,32.555069 C33.6779034,32.3874138 33.4290759,32.0885172 33.3259034,31.7296897 C33.222731,31.3716207 33.2743172,30.9847241 33.4677655,30.6661034 L36.7161793,25.3238966 L32.628731,23.7141034 L26.942869,36.2237586 Z M27.9283172,48.7311379 C27.7325931,48.7311379 27.5338345,48.6878966 27.348731,48.5983793 C26.8139034,48.3412069 26.512731,47.7608621 26.6105931,47.1759655 L27.8046621,40.0100345 L24.5145241,37.8176207 C23.9698345,37.4534828 23.7672828,36.7479655 24.0396276,36.1516897 L30.7208,21.4526552 C31.0151448,20.8055517 31.7646621,20.5013448 32.4269379,20.7623103 L39.1733517,23.419 C39.5397655,23.5638966 39.8242483,23.8620345 39.9494207,24.2360345 C40.0753517,24.6092759 40.0298345,25.0196897 39.8250069,25.3572759 L36.5052828,30.8140345 L40.5525241,32.8372759 C40.9257655,33.0238966 41.1897655,33.3736207 41.2686621,33.7832759 C41.3460414,34.1936897 41.2269379,34.6162414 40.9485241,34.9257586 L28.9221103,48.2888621 C28.6619034,48.5771379 28.2985241,48.7311379 27.9283172,48.7311379 L27.9283172,48.7311379 Z" id="Fill-6" fill="#C4C4C4"></path>
                </g>
            </g>
        </g>
    </g>
</svg>