<?xml version="1.0" encoding="UTF-8"?>
<svg width="66px" height="66px" viewBox="0 0 66 66" version="1.1" xmlns="http://www.w3.org/2000/svg" xmlns:xlink="http://www.w3.org/1999/xlink">
    <!-- Generator: Sketch 62 (91390) - https://sketch.com -->
    <title>Group 7</title>
    <desc>Created with Sketch.</desc>
    <defs>
        <polygon id="path-1" points="0.000151724138 0.000379310345 65.478069 0.000379310345 65.478069 65.4784483 0.000151724138 65.4784483"></polygon>
    </defs>
    <g id="Page-1" stroke="none" stroke-width="1" fill="none" fill-rule="evenodd">
        <g id="REVITA-5_reports_v02" transform="translate(-970.000000, -356.000000)">
            <g id="Group-43" transform="translate(556.000000, 314.000000)">
                <g id="Group-7" transform="translate(414.000000, 42.000000)">
                    <mask id="mask-2" fill="white">
                        <use xlink:href="#path-1"></use>
                    </mask>
                    <g id="Clip-2"></g>
                    <path d="M8.01786207,57.4605862 L49.4431034,57.4605862 L49.4431034,2.673 L8.01786207,2.673 L8.01786207,57.4605862 Z M50.7797931,60.1332069 L6.68193103,60.1332069 C5.94455172,60.1332069 5.346,59.5346552 5.346,58.7965172 L5.346,1.33631034 C5.346,0.598172414 5.94455172,0.000379310345 6.68193103,0.000379310345 L50.7797931,0.000379310345 C51.517931,0.000379310345 52.1164828,0.598172414 52.1164828,1.33631034 L52.1164828,58.7965172 C52.1164828,59.5346552 51.517931,60.1332069 50.7797931,60.1332069 L50.7797931,60.1332069 Z" id="Fill-1" fill="#C4C4C4" mask="url(#mask-2)"></path>
                    <path d="M14.6997931,26.7258276 L42.761931,26.7258276 L42.761931,8.01748276 L14.6997931,8.01748276 L14.6997931,26.7258276 Z M44.0986207,29.3976897 L13.3631034,29.3976897 C12.6257241,29.3976897 12.0264138,28.7998966 12.0264138,28.0617586 L12.0264138,6.6807931 C12.0264138,5.94341379 12.6257241,5.34410345 13.3631034,5.34410345 L44.0986207,5.34410345 C44.8367586,5.34410345 45.4353103,5.94341379 45.4353103,6.6807931 L45.4353103,28.0617586 C45.4353103,28.7998966 44.8367586,29.3976897 44.0986207,29.3976897 L44.0986207,29.3976897 Z" id="Fill-3" fill="#C4C4C4" mask="url(#mask-2)"></path>
                    <path d="M2.90187586,62.8059034 L57.2327724,62.8059034 C56.6812552,61.2499724 55.1943586,60.1332828 53.4533241,60.1332828 L6.68132414,60.1332828 C4.94028966,60.1332828 3.45415172,61.2499724 2.90187586,62.8059034 M58.8008414,65.4785241 C58.7993241,65.4770069 58.7993241,65.4770069 58.7985655,65.4785241 L1.33684138,65.4785241 C0.599462069,65.4785241 0.000151724138,64.8792138 0.000151724138,64.1418345 C0.000151724138,60.4579724 2.99822069,57.4606621 6.68132414,57.4606621 L53.4533241,57.4606621 C57.1045655,57.4606621 60.0821517,60.4056276 60.1329793,64.0462483 C60.1352552,64.0781103 60.1367724,64.1099724 60.1367724,64.1418345 C60.1367724,64.8792138 59.5382207,65.4785241 58.8008414,65.4785241" id="Fill-4" fill="#C4C4C4" mask="url(#mask-2)"></path>
                    <path d="M61.4705034,32.0706138 C60.7323655,32.0706138 60.1338138,31.4720621 60.1338138,30.7339241 L60.1338138,16.9953034 C60.1338138,16.430131 59.7810552,16.0348897 59.465469,16.0348897 L58.1302966,16.0348897 C57.8139517,16.0348897 57.4619517,16.430131 57.4619517,16.9953034 L57.4619517,24.0527517 C57.4619517,24.7908897 56.8641586,25.3886828 56.1252621,25.3886828 L50.7800207,25.3886828 C50.0426414,25.3886828 49.443331,24.7908897 49.443331,24.0527517 C49.443331,23.3146138 50.0426414,22.7160621 50.7800207,22.7160621 L54.7885724,22.7160621 L54.7885724,16.9953034 C54.7885724,14.9925448 56.2876069,13.362269 58.1302966,13.362269 L59.465469,13.362269 C61.3081586,13.362269 62.8064345,14.9925448 62.8064345,16.9953034 L62.8064345,30.7339241 C62.8064345,31.4720621 62.2086414,32.0706138 61.4705034,32.0706138" id="Fill-5" fill="#C4C4C4" mask="url(#mask-2)"></path>
                    <path d="M60.1343448,38.7522414 L62.8062069,38.7522414 L62.8062069,32.0703103 L60.1343448,32.0703103 L60.1343448,38.7522414 Z M64.1428966,41.4248621 L58.7984138,41.4248621 C58.0595172,41.4248621 57.4617241,40.8263103 57.4617241,40.0881724 L57.4617241,30.7343793 C57.4617241,29.9962414 58.0595172,29.3976897 58.7984138,29.3976897 L64.1428966,29.3976897 C64.8802759,29.3976897 65.478069,29.9962414 65.478069,30.7343793 L65.478069,40.0881724 C65.478069,40.8263103 64.8802759,41.4248621 64.1428966,41.4248621 L64.1428966,41.4248621 Z" id="Fill-6" fill="#C4C4C4" mask="url(#mask-2)"></path>
                </g>
            </g>
        </g>
    </g>
</svg>