<?xml version="1.0" encoding="UTF-8"?>
<svg width="53px" height="67px" viewBox="0 0 53 67" version="1.1" xmlns="http://www.w3.org/2000/svg" xmlns:xlink="http://www.w3.org/1999/xlink">
    <!-- Generator: Sketch 62 (91390) - https://sketch.com -->
    <title>Group 28</title>
    <desc>Created with Sketch.</desc>
    <defs>
        <polygon id="path-1" points="0 0.338831065 9.49672357 0.338831065 9.49672357 5.76608161 0 5.76608161"></polygon>
        <polygon id="path-3" points="0.283274135 0.663752864 9.77968966 0.663752864 9.77968966 6.09022299 0.283274135 6.09022299"></polygon>
        <polygon id="path-5" points="0.283141445 0.558016678 9.77968966 0.558016678 9.77968966 5.98494828 0.283141445 5.98494828"></polygon>
    </defs>
    <g id="Page-1" stroke="none" stroke-width="1" fill="none" fill-rule="evenodd">
        <g id="REVITA-5_reports_v02" transform="translate(-1561.000000, -356.000000)">
            <g id="Group-44" transform="translate(1132.000000, 314.000000)">
                <g id="Group-28" transform="translate(429.000000, 42.000000)">
                    <path d="M20.4035793,20.8675736 C17.4178437,23.8848839 17.6758322,25.4489874 17.8429471,25.8825621 C18.1764069,26.7443207 19.3693149,27.1301483 20.4035793,27.1301483 C21.4378437,27.1301483 22.6307517,26.7443207 22.9634414,25.8825621 C23.1320966,25.4489874 23.3893149,23.8848839 20.4035793,20.8675736 M20.4035793,29.8424931 C18.0123724,29.8424931 16.013154,28.6726885 15.3123494,26.860608 C14.6500506,25.1501828 14.8379586,22.2206655 19.490223,17.9881138 C20.0077402,17.5168034 20.7986483,17.5168034 21.3169356,17.9881138 C25.9692,22.2206655 26.1563379,25.1501828 25.493269,26.860608 C24.7924644,28.6726885 22.7955563,29.8424931 20.4035793,29.8424931" id="Fill-1" fill="#C4C4C4"></path>
                    <path d="M32.5035483,41.2154736 C29.5170425,44.2327839 29.775031,45.7968874 29.9429161,46.2304621 C30.2756057,47.0929908 31.4685138,47.4788184 32.5035483,47.4788184 C33.5370425,47.4788184 34.7299506,47.0929908 35.0634103,46.2304621 C35.2312954,45.7968874 35.4892839,44.2327839 32.5035483,41.2154736 M32.5035483,50.1911632 C30.1115713,50.1911632 28.113123,49.0205885 27.4130885,47.2092782 C26.7500195,45.4980828 26.9371575,42.5693356 31.5894218,38.3352437 C32.1077092,37.8639333 32.8986172,37.8639333 33.4161345,38.3352437 C38.0683989,42.5693356 38.2563069,45.4980828 37.594008,47.2092782 C36.8932034,49.0205885 34.8939851,50.1911632 32.5035483,50.1911632" id="Fill-3" fill="#C4C4C4"></path>
                    <path d="M21.7121586,50.7712138 L27.0621471,53.881708 L32.347446,56.9005586 L37.6512276,53.8763172 C37.6589287,53.8709264 37.6674,53.867846 37.6751011,53.8632253 L43.4101471,50.7419494 L43.4101471,38.8036276 L37.6935839,35.8094207 C37.6727908,35.7994092 37.6527678,35.7870874 37.6327448,35.7747655 L32.5230322,32.7551448 L27.1183655,35.6330644 L21.7121586,38.7605011 L21.7599057,44.8197655 L21.7599057,44.8420989 L21.7121586,50.7712138 Z M32.3466759,59.8185241 C32.113331,59.8185241 31.8815264,59.7592253 31.6743655,59.6406276 L25.7075149,56.232869 L19.6675034,52.7203747 C19.2462506,52.4754782 18.9890322,52.0241908 18.9920853,51.536708 L19.0475609,44.8313172 L18.9920853,37.9934667 C18.9890322,37.5052138 19.2470207,37.0539264 19.6698138,36.8082598 L25.7799057,33.2726621 C25.7929977,33.2649609 25.8076299,33.2572598 25.821492,33.2495586 L31.9208023,30.0019839 C32.3374345,29.7801908 32.8410897,29.7917425 33.2477103,30.0320184 L38.9835264,33.4220644 L45.3955034,36.7805356 C45.8429402,37.0146506 46.1232621,37.4782598 46.1232621,37.9826851 L46.1232621,51.5482598 C46.1232621,52.0449839 45.8514115,52.5024322 45.4147563,52.7403977 L38.9827563,56.2405701 L33.0182161,59.6406276 C32.8095149,59.7592253 32.5777103,59.8185241 32.3466759,59.8185241 L32.3466759,59.8185241 Z" id="Fill-5" fill="#C4C4C4"></path>
                    <path d="M9.49636437,30.4015195 L20.3349621,36.4230483 L25.7804448,33.2732782 C25.7927667,33.2648069 25.808169,33.2571057 25.8212609,33.2494046 L31.2012839,30.3853471 L31.2012839,17.0762207 L20.3488241,11.0469908 L9.49636437,17.0762207 L9.49636437,30.4015195 Z M20.3488241,39.3387034 C20.1224103,39.3387034 19.8952264,39.2817149 19.6896057,39.168508 L7.48174368,32.3853356 C7.05047931,32.1466 6.78324943,31.6930023 6.78324943,31.1993586 L6.78324943,16.2776115 C6.78324943,15.785508 7.05047931,15.3311402 7.48174368,15.0916345 L19.6896057,8.30923218 C20.100077,8.08127816 20.5975713,8.08127816 21.0072724,8.30923218 L33.2166747,15.0916345 C33.647169,15.3311402 33.9143989,15.785508 33.9143989,16.2776115 L33.9143989,31.1993586 C33.9143989,31.7014736 33.6379276,32.1612322 33.1943414,32.3976575 L27.1181345,35.6329103 L21.0280655,39.1561862 C20.8185943,39.2778644 20.5837092,39.3387034 20.3488241,39.3387034 L20.3488241,39.3387034 Z" id="Fill-7" fill="#C4C4C4"></path>
                    <path d="M20.3486701,10.8516126 C19.5993483,10.8516126 18.9917276,10.243992 18.9917276,9.49467011 L18.9917276,1.3560954 C18.9917276,0.606773563 19.5993483,-7.70114943e-05 20.3486701,-7.70114943e-05 C21.097992,-7.70114943e-05 21.7056126,0.606773563 21.7056126,1.3560954 L21.7056126,9.49467011 C21.7056126,10.243992 21.097992,10.8516126 20.3486701,10.8516126" id="Fill-9" fill="#C4C4C4"></path>
                    <path d="M32.3463678,66.4698529 C31.5962759,66.4698529 30.9894253,65.8622322 30.9894253,65.1136805 L30.9894253,58.4621977 C30.9894253,57.7128759 31.5962759,57.1060253 32.3463678,57.1060253 C33.0956897,57.1060253 33.7025402,57.7128759 33.7025402,58.4621977 L33.7025402,65.1136805 C33.7025402,65.8622322 33.0956897,66.4698529 32.3463678,66.4698529" id="Fill-11" fill="#C4C4C4"></path>
                    <path d="M8.13965287,17.6352471 C7.97253793,17.6352471 7.80234253,17.6036724 7.63676782,17.5374425 L0.853595402,14.8243276 C0.157411494,14.5463161 -0.180668966,13.7569483 0.0973425287,13.0615345 C0.376894253,12.3645805 1.16626207,12.0272701 1.86167586,12.3045115 L8.64407816,15.0183966 C9.33949195,15.2971782 9.67757241,16.0857759 9.39956092,16.7819598 C9.18623908,17.3117989 8.67796322,17.6352471 8.13965287,17.6352471" id="Fill-13" fill="#C4C4C4"></path>
                    <g id="Group-17" transform="translate(0.000000, 29.504336)">
                        <mask id="mask-2" fill="white">
                            <use xlink:href="#path-1"></use>
                        </mask>
                        <g id="Clip-16"></g>
                        <path d="M1.35755862,5.76608161 C0.820018391,5.76608161 0.310202299,5.44340345 0.0968804598,4.91279425 C-0.18036092,4.21661034 0.156949425,3.42724253 0.853903448,3.14923103 L7.63630575,0.436116092 C8.33248966,0.158104598 9.12185747,0.496185057 9.39909885,1.19236897 C9.67788046,1.88778276 9.33902989,2.67715057 8.64438621,2.95516207 L1.86121379,5.66827701 C1.6964092,5.73373678 1.52621379,5.76608161 1.35755862,5.76608161" id="Fill-15" fill="#C4C4C4" mask="url(#mask-2)"></path>
                    </g>
                    <path d="M13.5665759,55.6175471 C13.0282655,55.6175471 12.5192195,55.294869 12.3058977,54.7650299 C12.0286563,54.0696161 12.3659667,53.2802483 13.0629207,53.0022368 L19.845323,50.2883517 C20.5415069,50.0111103 21.3301046,50.3484207 21.6081161,51.0453747 C21.8868977,51.7400184 21.5480471,52.5286161 20.8518632,52.8081678 L14.0694609,55.5205126 C13.9038862,55.5867425 13.735231,55.6175471 13.5665759,55.6175471" id="Fill-18" fill="#C4C4C4"></path>
                    <g id="Group-22" transform="translate(43.126437, 49.527324)">
                        <mask id="mask-4" fill="white">
                            <use xlink:href="#path-3"></use>
                        </mask>
                        <g id="Clip-21"></g>
                        <path d="M8.42243908,6.09022299 C8.25455402,6.09022299 8.08512874,6.05941839 7.91878391,5.99318851 L1.13561149,3.28084368 C0.440967816,3.00129195 0.102117241,2.21269425 0.380898851,1.51805057 C0.658910345,0.821096552 1.44827816,0.483016092 2.14369195,0.761027586 L8.92609425,3.47491264 C9.62227816,3.75292414 9.96035862,4.54229195 9.68311724,5.23770575 C9.4697954,5.76754483 8.96074943,6.09022299 8.42243908,6.09022299" id="Fill-20" fill="#C4C4C4" mask="url(#mask-4)"></path>
                    </g>
                    <path d="M32.5576874,17.6352471 C32.0201471,17.6352471 31.5111011,17.3117989 31.2977793,16.7819598 C31.0197678,16.0857759 31.3578483,15.2971782 32.0548023,15.0183966 L38.8356644,12.3045115 C39.5318483,12.0272701 40.3212161,12.3645805 40.5999977,13.0615345 C40.8787793,13.7569483 40.5391586,14.5463161 39.8437448,14.8243276 L33.0605724,17.5374425 C32.8957678,17.6036724 32.7255724,17.6352471 32.5576874,17.6352471" id="Fill-23" fill="#C4C4C4"></path>
                    <g id="Group-27" transform="translate(43.126437, 33.354910)">
                        <mask id="mask-6" fill="white">
                            <use xlink:href="#path-5"></use>
                        </mask>
                        <g id="Clip-26"></g>
                        <path d="M1.64034483,5.98494828 C1.10203448,5.98494828 0.592988506,5.66227011 0.380436782,5.13243103 C0.102425287,4.43547701 0.440505747,3.64687931 1.13591954,3.3680977 L7.91832184,0.654982759 C8.61450575,0.377741379 9.40387356,0.715051724 9.68265517,1.41123563 C9.96066667,2.10664943 9.62181609,2.89524713 8.9264023,3.17402874 L2.14322989,5.88714368 C1.97842529,5.95337356 1.80822989,5.98494828 1.64034483,5.98494828" id="Fill-25" fill="#C4C4C4" mask="url(#mask-6)"></path>
                    </g>
                </g>
            </g>
        </g>
    </g>
</svg>