<?xml version="1.0" encoding="UTF-8"?>
<svg width="66px" height="50px" viewBox="0 0 66 50" version="1.1" xmlns="http://www.w3.org/2000/svg" xmlns:xlink="http://www.w3.org/1999/xlink">
    <!-- Generator: Sketch 62 (91390) - https://sketch.com -->
    <title>Group 10</title>
    <desc>Created with Sketch.</desc>
    <defs>
        <polygon id="path-1" points="0 -7.5862069e-05 65.478069 -7.5862069e-05 65.478069 49.9778552 0 49.9778552"></polygon>
    </defs>
    <g id="Page-1" stroke="none" stroke-width="1" fill="none" fill-rule="evenodd">
        <g id="REVITA-5_reports_v02" transform="translate(-2119.000000, -364.000000)">
            <g id="Group-45" transform="translate(1707.000000, 314.000000)">
                <g id="Group-10" transform="translate(412.000000, 50.000000)">
                    <mask id="mask-2" fill="white">
                        <use xlink:href="#path-1"></use>
                    </mask>
                    <g id="Clip-2"></g>
                    <path d="M2.67262069,32.0706138 L62.8062069,32.0706138 L62.8062069,2.67254483 L2.67262069,2.67254483 L2.67262069,32.0706138 Z M64.1421379,34.7439931 L1.33593103,34.7439931 C0.599310345,34.7439931 0,34.1454414 0,33.4073034 L0,1.33661379 C0,0.598475862 0.599310345,-7.5862069e-05 1.33593103,-7.5862069e-05 L64.1421379,-7.5862069e-05 C64.8802759,-7.5862069e-05 65.4788276,0.598475862 65.4788276,1.33661379 L65.4788276,33.4073034 C65.4788276,34.1454414 64.8802759,34.7439931 64.1421379,34.7439931 L64.1421379,34.7439931 Z" id="Fill-1" fill="#FFFFFF" mask="url(#mask-2)"></path>
                    <path d="M2.67262069,37.4158552 L62.8062069,37.4158552 L62.8062069,34.7439931 L2.67262069,34.7439931 L2.67262069,37.4158552 Z M64.1421379,40.0892345 L1.33593103,40.0892345 C0.599310345,40.0892345 0,39.4906828 0,38.7525448 L0,33.4073034 C0,32.6699241 0.599310345,32.0706138 1.33593103,32.0706138 L64.1421379,32.0706138 C64.8802759,32.0706138 65.4788276,32.6699241 65.4788276,33.4073034 L65.4788276,38.7525448 C65.4788276,39.4906828 64.8802759,40.0892345 64.1421379,40.0892345 L64.1421379,40.0892345 Z" id="Fill-3" fill="#FFFFFF" mask="url(#mask-2)"></path>
                    <path d="M2.67262069,42.7610966 L62.8062069,42.7610966 L62.8062069,34.7439931 L2.67262069,34.7439931 L2.67262069,42.7610966 Z M64.1421379,45.4344759 L1.33593103,45.4344759 C0.599310345,45.4344759 0,44.8359241 0,44.0977862 L0,33.4073034 C0,32.6699241 0.599310345,32.0706138 1.33593103,32.0706138 L64.1421379,32.0706138 C64.8802759,32.0706138 65.4788276,32.6699241 65.4788276,33.4073034 L65.4788276,44.0977862 C65.4788276,44.8359241 64.8802759,45.4344759 64.1421379,45.4344759 L64.1421379,45.4344759 Z" id="Fill-4" fill="#FFFFFF" mask="url(#mask-2)"></path>
                    <path d="M2.67262069,47.3052345 L62.8062069,47.3052345 L62.8062069,34.7439931 L2.67262069,34.7439931 L2.67262069,47.3052345 Z M64.1421379,49.9778552 L1.33593103,49.9778552 C0.599310345,49.9778552 0,49.3800621 0,48.6411655 L0,33.4073034 C0,32.6699241 0.599310345,32.0706138 1.33593103,32.0706138 L64.1421379,32.0706138 C64.8802759,32.0706138 65.4788276,32.6699241 65.4788276,33.4073034 L65.4788276,48.6411655 C65.4788276,49.3800621 64.8802759,49.9778552 64.1421379,49.9778552 L64.1421379,49.9778552 Z" id="Fill-5" fill="#FFFFFF" mask="url(#mask-2)"></path>
                    <path d="M32.2047379,8.01808966 C27.0476345,8.01808966 22.8501862,12.2140207 22.8501862,17.3726414 C22.8501862,22.5297448 27.0476345,26.7256759 32.2047379,26.7256759 C37.3633586,26.7256759 41.5592897,22.5297448 41.5592897,17.3726414 C41.5592897,12.2140207 37.3633586,8.01808966 32.2047379,8.01808966 M32.2047379,29.3982966 C25.5736345,29.3982966 20.1775655,24.0037448 20.1775655,17.3726414 C20.1775655,10.7400207 25.5736345,5.34622759 32.2047379,5.34622759 C38.8373586,5.34622759 44.2319103,10.7400207 44.2319103,17.3726414 C44.2319103,24.0037448 38.8373586,29.3982966 32.2047379,29.3982966" id="Fill-6" fill="#FFFFFF" mask="url(#mask-2)"></path>
                    <path d="M8.15221379,16.0361793 C7.41483448,16.0361793 6.81552414,16.634731 6.81552414,17.372869 C6.81552414,18.108731 7.41483448,18.7080414 8.15221379,18.7080414 C8.88883448,18.7080414 9.48814483,18.108731 9.48814483,17.372869 C9.48814483,16.634731 8.88883448,16.0361793 8.15221379,16.0361793 M8.15221379,21.3814207 C5.9415931,21.3814207 4.14290345,19.5819724 4.14290345,17.372869 C4.14290345,15.1614897 5.9415931,13.3635586 8.15221379,13.3635586 C10.3628345,13.3635586 12.1600069,15.1614897 12.1600069,17.372869 C12.1600069,19.5819724 10.3628345,21.3814207 8.15221379,21.3814207" id="Fill-7" fill="#FFFFFF" mask="url(#mask-2)"></path>
                    <path d="M57.5948621,16.0361793 C56.8574828,16.0361793 56.2581724,16.634731 56.2581724,17.372869 C56.2581724,18.108731 56.8574828,18.7080414 57.5948621,18.7080414 C58.3314828,18.7080414 58.9307931,18.108731 58.9307931,17.372869 C58.9307931,16.634731 58.3314828,16.0361793 57.5948621,16.0361793 M57.5948621,21.3814207 C55.3842414,21.3814207 53.5855517,19.5819724 53.5855517,17.372869 C53.5855517,15.1614897 55.3842414,13.3635586 57.5948621,13.3635586 C59.8054828,13.3635586 61.6034138,15.1614897 61.6034138,17.372869 C61.6034138,19.5819724 59.8054828,21.3814207 57.5948621,21.3814207" id="Fill-8" fill="#FFFFFF" mask="url(#mask-2)"></path>
                    <path d="M31.5772069,23.3787172 L31.5772069,21.8948552 C30.531069,21.8470621 29.5160345,21.5663724 28.9220345,21.2227172 L29.3908621,19.3959586 C30.0463103,19.7555448 30.9672759,20.0825103 31.9823103,20.0825103 C32.872931,20.0825103 33.4828621,19.7396138 33.4828621,19.1137517 C33.4828621,18.521269 32.982931,18.1465103 31.8267931,17.7558207 C30.1547931,17.1929241 29.0145862,16.4123034 29.0145862,14.8973379 C29.0145862,13.5234759 29.9833448,12.4454759 31.6545862,12.1177517 L31.6545862,10.633131 L33.1854828,10.633131 L33.1854828,12.0077517 C34.2316207,12.0547862 34.9348621,12.273269 35.4499655,12.5228552 L34.9978276,14.2881655 C34.5919655,14.1167172 33.8727931,13.757131 32.7485172,13.757131 C31.7334828,13.757131 31.405,14.1948552 31.405,14.6325793 C31.405,15.1469241 31.9512069,15.4761655 33.2795517,15.9753379 C35.1374138,16.6307862 35.8876897,17.4903034 35.8876897,18.8960276 C35.8876897,20.2858207 34.9037586,21.4723034 33.1081034,21.7848552 L33.1081034,23.3787172 L31.5772069,23.3787172 Z" id="Fill-9" fill="#FFFFFF" mask="url(#mask-2)"></path>
                </g>
            </g>
        </g>
    </g>
</svg>